<svg width="412" height="62" viewBox="0 0 412 62" fill="none" xmlns="http://www.w3.org/2000/svg">
<path d="M21.503 60.888C17.919 60.9733 15.6363 59.736 14.655 57.176C13.1617 53.2933 15.0817 51.416 20.415 51.544C20.7563 51.544 21.2257 51.5227 21.823 51.48C22.1643 51.48 22.399 51.48 22.527 51.48C23.2523 51.48 23.7643 51.352 24.063 51.096C24.3617 50.84 24.511 50.392 24.511 49.752L24.511 6.232C24.511 2.86133 26.1963 1.176 29.567 1.176C32.9377 1.176 34.623 2.86133 34.623 6.232L34.623 25.496V49.816C34.623 52.504 34.2817 54.552 33.599 55.96C32.959 57.368 31.8497 58.456 30.271 59.224C28.223 60.12 25.3003 60.6747 21.503 60.888ZM56.063 45.528C54.1003 46.296 52.5857 46.4667 51.519 46.04C50.4097 45.528 49.6417 44.2907 49.215 42.328C48.5323 39.8533 47.5937 36.9733 46.399 33.688C45.0337 30.0187 43.5403 26.4133 41.919 22.872C40.4257 19.8 41.3217 17.6453 44.607 16.408C47.423 15.384 49.4923 16.1733 50.815 18.776C54.9537 26.84 57.855 33.8587 59.519 39.832C59.903 41.3253 59.7963 42.52 59.199 43.416C58.6443 44.2267 57.599 44.9307 56.063 45.528ZM7.423 45.016C6.399 45.3147 5.14033 45.0587 3.647 44.248C1.89767 43.3093 0.873667 42.2853 0.575 41.176C0.276333 40.024 0.639 38.5947 1.663 36.888C3.839 32.536 5.60967 27.1813 6.975 20.824C7.27367 19.032 7.91367 17.7947 8.895 17.112C9.919 16.4293 11.327 16.2587 13.119 16.6C14.911 16.8987 16.1483 17.5173 16.831 18.456C17.5137 19.3947 17.6417 20.76 17.215 22.552C16.3617 26.1787 15.359 29.656 14.207 32.984C12.927 36.696 11.6257 39.8107 10.303 42.328C9.407 43.8213 8.447 44.7173 7.423 45.016ZM133.439 58.328C132.287 60.1627 130.239 60.8453 127.295 60.376C120.426 58.9253 115.028 56.344 111.103 52.632L111.167 55.384C111.21 56.1093 111.018 56.7067 110.591 57.176C110.164 57.6453 109.588 57.9013 108.863 57.944C106.388 58.2427 102.719 58.6267 97.855 59.096C95.7217 59.3093 94.143 59.4587 93.119 59.544C92.095 59.672 91.1777 59.3947 90.367 58.712C89.599 58.072 89.1297 57.1547 88.959 55.96L88.511 52.504C87.8283 54.424 87.1457 56.0027 86.463 57.24C85.6097 58.5627 84.735 59.3733 83.839 59.672C82.8577 59.9707 81.727 59.736 80.447 58.968C77.6737 57.304 77.2897 54.8507 79.295 51.608C81.4283 47 82.495 40.7493 82.495 32.856L82.495 28.504C82.495 27.2667 82.8577 26.3067 83.583 25.624C84.3083 24.8987 85.2683 24.536 86.463 24.536L107.839 24.536H130.047C132.18 24.536 133.247 25.6027 133.247 27.736C133.247 29.8693 132.18 30.936 130.047 30.936H92.735C91.711 30.936 91.199 31.448 91.199 32.472V32.984C91.199 35.2027 91.1137 37.272 90.943 39.192H131.839C133.972 39.192 135.039 40.2587 135.039 42.392C135.039 44.5253 133.972 45.592 131.839 45.592H130.879L132.799 47.256C133.908 48.2373 133.759 48.984 132.351 49.496C130.602 50.1787 128.554 50.904 126.207 51.672C127.103 51.928 128.319 52.2053 129.855 52.504C132.159 52.8027 133.631 53.3787 134.271 54.232C134.911 55.1707 134.634 56.536 133.439 58.328ZM88.511 52.44L93.439 52.056V45.592H90.239C90.111 46.36 89.8763 47.512 89.535 49.048C89.1937 50.328 88.8523 51.4587 88.511 52.44ZM102.399 51.288L109.311 50.648C108.884 50.136 108.287 49.3253 107.519 48.216C106.879 47.32 106.324 46.4453 105.855 45.592H102.399V51.288ZM118.527 48.28C119.722 47.768 120.639 47.3627 121.279 47.064C122.132 46.6373 123.071 46.1467 124.095 45.592H115.327C116.18 46.5733 117.247 47.4693 118.527 48.28ZM96.959 37.72C95.1243 37.72 94.207 36.7813 94.207 34.904C94.207 33.0693 95.1243 32.152 96.959 32.152H111.423H125.951C127.786 32.152 128.703 33.0693 128.703 34.904C128.703 36.7813 127.786 37.72 125.951 37.72H96.959ZM87.039 23.192C85.8017 23.192 84.799 22.808 84.031 22.04C83.263 21.272 82.879 20.2693 82.879 19.032V8.024C82.879 6.78667 83.263 5.784 84.031 5.016C84.799 4.248 85.8017 3.864 87.039 3.864H95.551V3.736C95.551 2.62666 96.0203 1.752 96.959 1.112C97.7697 0.557331 98.7937 0.279999 100.031 0.279999C101.268 0.279999 102.314 0.557331 103.167 1.112C104.063 1.752 104.511 2.62666 104.511 3.736V3.864H108.863V3.736C108.863 2.62666 109.332 1.752 110.271 1.112C111.124 0.557331 112.17 0.279999 113.407 0.279999C114.644 0.279999 115.69 0.557331 116.543 1.112C117.482 1.752 117.951 2.62666 117.951 3.736V3.864L127.167 3.864C128.404 3.864 129.407 4.248 130.175 5.016C130.943 5.784 131.327 6.78667 131.327 8.024V19.032C131.327 20.2693 130.943 21.272 130.175 22.04C129.407 22.808 128.404 23.192 127.167 23.192H107.071L87.039 23.192ZM91.775 17.688H95.551V16.088H93.375H91.199V17.112C91.199 17.496 91.391 17.688 91.775 17.688ZM104.511 17.688H106.687H108.863V16.088H104.511V17.688ZM117.951 17.688H120.191H121.535C122.175 17.688 122.495 17.368 122.495 16.728V16.088L117.951 16.088V17.688ZM91.199 10.968H95.551V9.944C95.551 9.56 95.359 9.368 94.975 9.368H93.375H92.095C91.4977 9.368 91.199 9.66666 91.199 10.264V10.968ZM104.511 10.968H106.687H108.863V9.944C108.863 9.56 108.671 9.368 108.287 9.368H105.919C104.98 9.368 104.511 9.83733 104.511 10.776V10.968ZM117.951 10.968H120.191L122.495 10.968V9.944C122.495 9.56 122.303 9.368 121.919 9.368L119.359 9.368C118.42 9.368 117.951 9.83733 117.951 10.776V10.968Z" fill="#EAC645"/>
<path d="M177.919 55.896C171.007 55.896 165.418 53.8267 161.151 49.688C156.586 45.2933 154.303 39.2133 154.303 31.448C154.303 23.768 156.607 17.624 161.215 13.016C165.61 8.664 171.114 6.488 177.727 6.488C182.292 6.488 186.346 7.704 189.887 10.136C190.996 11.0747 191.551 12.0347 191.551 13.016C191.551 13.912 191.06 14.9573 190.079 16.152C187.946 18.6693 185.599 19.0533 183.039 17.304C181.546 16.6213 179.903 16.28 178.111 16.28C174.527 16.28 171.626 17.5813 169.407 20.184C167.146 22.872 166.015 26.4987 166.015 31.064C166.015 35.8853 167.082 39.5547 169.215 42.072C171.434 44.7173 174.719 46.04 179.071 46.04C181.034 46.04 182.548 45.6347 183.615 44.824V37.144H180.735C177.62 37.144 176.063 35.5867 176.063 32.472C176.063 29.3573 177.62 27.8 180.735 27.8H184.895H189.631C190.868 27.8 191.871 28.184 192.639 28.952C193.407 29.72 193.791 30.7227 193.791 31.96V47.832C193.791 48.472 193.642 49.1333 193.343 49.816C193.044 50.456 192.703 50.9467 192.319 51.288C190.484 52.6533 188.372 53.7413 185.983 54.552C183.38 55.448 180.692 55.896 177.919 55.896ZM235.864 55.896C229.294 55.896 224.024 53.6773 220.056 49.24C216.046 44.76 214.04 38.68 214.04 31C214.04 23.2773 216.046 17.2187 220.056 12.824C223.982 8.6 229.251 6.488 235.864 6.488C242.478 6.488 247.747 8.62133 251.672 12.888C255.683 17.2827 257.688 23.2987 257.688 30.936C257.688 38.6587 255.683 44.76 251.672 49.24C247.704 53.6773 242.435 55.896 235.864 55.896ZM235.864 46.04C239.022 46.04 241.496 44.6747 243.288 41.944C245.123 39.256 246.04 35.5867 246.04 30.936C246.04 26.3707 245.123 22.7867 243.288 20.184C241.496 17.5813 239.022 16.28 235.864 16.28C232.707 16.28 230.232 17.5813 228.44 20.184C226.648 22.744 225.752 26.328 225.752 30.936C225.752 35.5867 226.648 39.2773 228.44 42.008C230.275 44.696 232.75 46.04 235.864 46.04ZM287.265 55.768C285.43 58.84 283.148 59.2667 280.417 57.048C279.137 56.024 278.39 55 278.177 53.976C277.964 52.952 278.305 51.8 279.201 50.52C280.566 48.472 281.697 46.68 282.593 45.144C283.404 43.8213 284.62 41.752 286.241 38.936C287.948 35.736 290.124 35.352 292.769 37.784C294.646 39.5333 295.03 41.496 293.921 43.672C291.66 47.9813 289.441 52.0133 287.265 55.768ZM303.137 58.456C301.9 58.456 300.897 58.072 300.129 57.304C299.361 56.536 298.977 55.5333 298.977 54.296V38.68C298.977 37.4427 299.361 36.44 300.129 35.672C300.897 34.904 301.9 34.52 303.137 34.52L311.585 34.52V27.736L299.809 27.736C296.865 27.736 295.393 26.2427 295.393 23.256C295.393 20.312 296.865 18.84 299.809 18.84L311.585 18.84V12.952C309.196 13.336 306.678 13.656 304.033 13.912C302.668 14.04 301.58 13.8693 300.769 13.4C300.001 12.9307 299.404 12.056 298.977 10.776C298.465 9.19733 298.572 8.00266 299.297 7.192C299.937 6.46666 301.153 5.99733 302.945 5.784C311.521 4.632 318.433 3.13866 323.681 1.304C324.833 0.834665 325.857 0.749331 326.753 1.048C327.521 1.304 328.374 1.92267 329.313 2.904C332.214 5.93333 331.724 8.13066 327.841 9.496C325.153 10.264 322.657 10.8827 320.353 11.352V18.84H331.361C334.305 18.84 335.777 20.312 335.777 23.256C335.777 26.2427 334.305 27.736 331.361 27.736H320.353V34.52H328.993C330.23 34.52 331.233 34.904 332.001 35.672C332.769 36.44 333.153 37.4427 333.153 38.68V54.296C333.153 55.5333 332.769 56.536 332.001 57.304C331.233 58.072 330.23 58.456 328.993 58.456H315.809H303.137ZM308.833 50.072H315.809H322.849C323.873 50.072 324.385 49.56 324.385 48.536V44.44C324.385 43.416 323.873 42.904 322.849 42.904L308.833 42.904C307.809 42.904 307.297 43.416 307.297 44.44V48.536C307.297 49.56 307.809 50.072 308.833 50.072ZM290.657 28.632C288.95 31.2347 286.817 31.7253 284.257 30.104C283.702 29.7627 283.126 29.4427 282.529 29.144C282.145 28.9307 281.569 28.5893 280.801 28.12C280.46 27.9493 280.225 27.8213 280.097 27.736C277.452 26.2853 277.046 24.3013 278.881 21.784C280.332 19.736 282.102 19.2027 284.193 20.184C285.302 20.696 287.009 21.528 289.313 22.68C290.678 23.448 291.468 24.3013 291.681 25.24C291.894 26.1787 291.553 27.3093 290.657 28.632ZM293.281 11.16C291.489 13.6347 289.334 14.04 286.817 12.376C286.646 12.248 286.369 12.0773 285.985 11.864C285.644 11.6507 285.388 11.5013 285.217 11.416C285.004 11.2453 284.641 11.032 284.129 10.776C283.66 10.4773 283.297 10.264 283.041 10.136C280.438 8.6 280.097 6.59466 282.017 4.12C283.553 2.15733 285.345 1.66667 287.393 2.648C288.63 3.288 290.23 4.14133 292.193 5.208C293.601 5.976 294.369 6.85066 294.497 7.832C294.668 8.77066 294.262 9.88 293.281 11.16ZM399.137 61.08C397.814 61.08 396.726 60.7387 395.873 60.056C395.062 59.416 394.55 58.52 394.337 57.368C394.337 57.2827 394.294 57.176 394.209 57.048C394.166 56.792 394.124 56.6 394.081 56.472C393.526 55.1493 393.505 54.1467 394.017 53.464C394.529 52.7387 395.553 52.4187 397.089 52.504C397.516 52.504 397.921 52.504 398.305 52.504C399.158 52.504 399.862 52.12 400.417 51.352C400.972 50.5413 401.398 48.2373 401.697 44.44C401.996 40.6853 402.23 34.5413 402.401 26.008C402.444 24.8133 402.337 24.0027 402.081 23.576C401.868 23.192 401.484 23 400.929 23H398.561C398.134 31.4053 397.196 38.2107 395.745 43.416C394.038 49.6453 391.329 54.7227 387.617 58.648C386.678 59.544 385.676 59.9493 384.609 59.864C383.542 59.7787 382.625 59.2027 381.857 58.136C381.686 57.9653 381.43 57.7093 381.089 57.368C380.79 57.0267 380.556 56.7707 380.385 56.6C375.862 57.0693 369.27 57.688 360.609 58.456C358.86 58.6267 357.558 58.7547 356.705 58.84C355.51 58.9253 354.614 58.6693 354.017 58.072C353.505 57.56 353.164 56.664 352.993 55.384C352.78 54.0187 352.908 52.9947 353.377 52.312C353.846 51.6293 354.742 51.2667 356.065 51.224C358.369 51.0533 361.313 50.8613 364.897 50.648V47.896H357.409C355.276 47.896 354.209 46.808 354.209 44.632C354.209 42.4987 355.276 41.432 357.409 41.432H364.897V39.768H358.625C357.388 39.768 356.385 39.384 355.617 38.616C354.849 37.848 354.465 36.8453 354.465 35.608V23.576C354.465 22.3387 354.849 21.336 355.617 20.568C356.385 19.8 357.388 19.416 358.625 19.416H364.897V17.816L356.257 17.816C354.081 17.816 352.993 16.7067 352.993 14.488C352.993 12.312 354.081 11.224 356.257 11.224L364.897 11.224V9.688C361.74 9.85866 359.393 9.96533 357.857 10.008C355.809 10.0507 354.508 9.15466 353.953 7.32C353.228 4.84533 354.316 3.50133 357.217 3.288C365.366 2.776 372.193 2.008 377.697 0.983997C378.678 0.81333 379.489 0.919997 380.129 1.304C380.684 1.64533 381.238 2.28533 381.793 3.224C383.372 5.99733 382.689 7.61867 379.745 8.088C378.209 8.38667 376.012 8.68533 373.153 8.984V11.224H381.409C383.585 11.224 384.673 12.312 384.673 14.488C384.673 16.7067 383.585 17.816 381.409 17.816H373.153V19.416H379.681C380.918 19.416 381.921 19.8 382.689 20.568C383.457 21.336 383.841 22.3387 383.841 23.576V35.608C383.841 36.8453 383.457 37.848 382.689 38.616C381.921 39.384 380.918 39.768 379.681 39.768H373.153V41.432H380.065C381.302 41.432 382.305 41.816 383.073 42.584C383.841 43.352 384.225 44.3547 384.225 45.592V47.896C386.102 44.8667 387.489 41.1973 388.385 36.888C389.153 33.2187 389.665 28.5893 389.921 23H389.153C386.337 23 384.929 21.5707 384.929 18.712C384.929 15.896 386.337 14.488 389.153 14.488H390.113C390.113 11.672 390.113 8.856 390.113 6.04C390.113 3.01066 391.585 1.496 394.529 1.496C397.43 1.496 398.881 2.98933 398.881 5.976C398.881 9.816 398.86 12.6533 398.817 14.488H405.089H408.417C409.398 14.488 410.102 14.872 410.529 15.64C411.041 16.5787 411.276 18.1573 411.233 20.376C411.02 33.3893 410.721 42.3067 410.337 47.128C409.953 52.3333 409.292 55.6187 408.353 56.984C407.585 58.136 406.753 58.9893 405.857 59.544C405.132 60.0133 404.172 60.3973 402.977 60.696C402.209 60.8667 400.929 60.9947 399.137 61.08ZM373.153 50.072C374.305 49.9867 375.99 49.8587 378.209 49.688C378.764 49.6453 379.596 49.5813 380.705 49.496C381.857 49.4107 382.71 49.3467 383.265 49.304C383.692 48.7067 384.012 48.2373 384.225 47.896H373.153V50.072ZM362.465 34.136H364.897V32.216H363.297H361.697V33.368C361.697 33.88 361.953 34.136 362.465 34.136ZM373.153 34.136H374.689H375.713C376.097 34.136 376.289 33.944 376.289 33.56V32.216H373.153V34.136ZM361.697 26.968H364.897V25.048H363.297H362.273C361.889 25.048 361.697 25.24 361.697 25.624V26.968ZM373.153 26.968H374.689H376.289V25.816C376.289 25.304 376.033 25.048 375.521 25.048H373.153V26.968Z" fill="#57AC6F"/>
</svg>
