<svg width="1688" height="658" viewBox="0 0 1688 658" fill="none" xmlns="http://www.w3.org/2000/svg">
<path d="M1686.72 326.372C1681.49 447.439 1679.76 504.06 1673.53 591.857C1670.98 627.662 1645.83 654.22 1567.93 655.84C1490.03 657.46 844.182 658 844.182 658C844.182 658 198.338 657.46 120.436 655.84C42.5351 654.22 17.3838 627.651 14.8377 591.857C8.60619 504.06 -3.75844 444.584 1.10864 335.772C5.96165 226.959 8.60619 153.94 14.8518 66.1537C17.3979 30.3494 42.5351 3.7799 120.436 2.15994C198.338 0.539986 844.182 0 844.182 0C844.182 0 1490.03 0.539986 1567.93 2.15994C1645.83 3.7799 1670.98 30.3494 1673.53 66.1427C1679.77 153.94 1691.97 205.294 1686.72 326.372Z" fill="#D9D9D9"/>
</svg>
