<svg width="1920" height="135" viewBox="0 0 1920 135" fill="none" xmlns="http://www.w3.org/2000/svg">
<path d="M0 -0.000157446C120 -0.000147606 120 10.256 240 10.256C360 10.2561 360.01 -0.000127924 480.01 -0.000118084C600.01 -0.000108243 600.01 10.2561 720.01 10.2561C840.01 10.2561 840.01 -8.85626e-05 960.01 -7.87222e-05C1080.01 -6.88819e-05 1080.01 10.2561 1200.01 10.2561C1320.01 10.2561 1320 -4.92019e-05 1440 -3.93615e-05C1560 -2.95211e-05 1560 10.2562 1680 10.2562C1800 10.2562 1800 -9.84038e-06 1920 0L1920 134.135L-1.25015e-05 134.135L0 -0.000157446Z" fill="white"/>
</svg>
