<svg width="25" height="27" viewBox="0 0 25 27" fill="none" xmlns="http://www.w3.org/2000/svg">
<path d="M21.4156 16.9247C23.8249 15.8126 24.478 12.9668 24.0664 10.7939C23.5944 8.2903 21.8162 6.56229 19.6538 6.49956L8.17244 6.15738C7.51385 3.39142 6.5589 1.76607 5.16489 0.979052C4.61057 0.665387 3.99589 0.5 3.38121 0.5C2.84336 0.5 2.32198 0.625466 1.86097 0.864992C0.362676 1.6463 -0.246519 3.5454 0.499882 5.10803C0.8182 5.76387 1.32861 6.27144 1.94329 6.568C2.17379 7.20673 2.55248 8.60397 2.85434 11.4213V11.4555L2.86531 11.4897L3.57878 16.6623C2.35491 17.6889 1.60851 19.2515 1.60851 20.9681C1.60851 24.0192 3.99589 26.5 6.9321 26.5C8.69931 26.5 10.3238 25.5818 11.3007 24.1276H13.2161C14.193 25.5761 15.8176 26.5 17.5848 26.5C20.521 26.5 22.9084 24.0192 22.9084 20.9681C22.9084 19.4055 22.2827 17.9968 21.2784 16.9874C21.3277 16.9703 21.3717 16.9475 21.421 16.9247H21.4156Z" fill="white"/>
<path d="M19.6297 13.2326L10.1725 16.4586C9.74091 16.6067 9.50648 17.084 9.65034 17.5284C9.76222 17.885 10.0872 18.11 10.4336 18.11C10.5188 18.11 10.6094 18.0935 10.6946 18.0661L20.1998 14.8236C20.1998 14.8236 20.2477 14.8072 20.2744 14.7962C21.5478 14.2147 21.8674 12.5907 21.6224 11.3288C21.356 9.9243 20.4662 8.9971 19.3686 8.96418L6.93838 8.59659H6.91707C6.7892 8.59659 6.66665 8.62951 6.56009 8.68438C6.05926 5.67784 5.33465 3.93865 4.34897 3.38453C3.86412 3.11021 3.39526 3.16507 3.1182 3.30772C2.71328 3.5162 2.54811 4.02643 2.75057 4.4434C2.91574 4.77807 3.26206 4.95363 3.60838 4.90426C3.81617 5.08531 4.69529 6.13869 5.24941 11.2575L6.10721 17.4461C6.11787 17.5339 6.14984 17.6162 6.18713 17.693C4.95104 18.088 4.04528 19.2786 4.04528 20.6831C4.04528 22.4058 5.40925 23.8103 7.08224 23.8103C8.47285 23.8103 9.65034 22.8447 10.0073 21.528H14.4935C14.8558 22.8447 16.028 23.8103 17.4186 23.8103C19.0916 23.8103 20.4555 22.4058 20.4555 20.6831C20.4555 18.9604 19.0916 17.5559 17.4186 17.5559C16.9657 17.5559 16.5981 17.9344 16.5981 18.4008C16.5981 18.8671 16.9657 19.2457 17.4186 19.2457C18.1858 19.2457 18.8092 19.8876 18.8092 20.6776C18.8092 21.4677 18.1858 22.1096 17.4186 22.1096C16.6513 22.1096 16.028 21.4677 16.028 20.6776C16.028 20.2113 15.6603 19.8327 15.2074 19.8327H9.29869C8.84581 19.8327 8.47818 20.2113 8.47818 20.6776C8.47818 21.4677 7.8548 22.1096 7.08757 22.1096C6.32033 22.1096 5.69696 21.4677 5.69696 20.6776C5.69696 19.8876 6.32033 19.2457 7.08757 19.2457C7.54045 19.2457 7.90808 18.8671 7.90808 18.4008C7.90808 18.1429 7.76422 17.4077 7.73758 17.2047L6.8851 11.0435C6.85846 10.7802 6.82649 10.5223 6.79453 10.2754C6.83182 10.2809 6.86379 10.2864 6.90109 10.2919L19.3313 10.6595C19.6723 10.6704 19.9281 11.1807 20.0186 11.658C20.1518 12.3548 19.9813 13.0515 19.6403 13.2381L19.6297 13.2326Z" fill="#A88686"/>
<path d="M19.6297 13.2326L10.1725 16.4586C9.74091 16.6067 9.50648 17.084 9.65034 17.5284C9.76222 17.885 10.0872 18.11 10.4336 18.11C10.5188 18.11 10.6094 18.0935 10.6946 18.0661L20.1998 14.8236C20.1998 14.8236 20.2477 14.8072 20.2744 14.7962C21.5478 14.2147 21.8674 12.5907 21.6224 11.3288C21.356 9.9243 20.4662 8.9971 19.3686 8.96418L6.93838 8.59659H6.91707C6.7892 8.59659 6.66665 8.62951 6.56009 8.68438C6.05926 5.67784 5.33465 3.93865 4.34897 3.38453C3.86412 3.11021 3.39526 3.16507 3.1182 3.30772C2.71328 3.5162 2.54811 4.02643 2.75057 4.4434C2.91574 4.77807 3.26206 4.95363 3.60838 4.90426C3.81617 5.08531 4.69529 6.13869 5.24941 11.2575L6.10721 17.4461C6.11787 17.5339 6.14984 17.6162 6.18713 17.693C4.95104 18.088 4.04528 19.2786 4.04528 20.6831C4.04528 22.4058 5.40925 23.8103 7.08224 23.8103C8.47285 23.8103 9.65034 22.8447 10.0073 21.528H14.4935C14.8558 22.8447 16.028 23.8103 17.4186 23.8103C19.0916 23.8103 20.4555 22.4058 20.4555 20.6831C20.4555 18.9604 19.0916 17.5559 17.4186 17.5559C16.9657 17.5559 16.5981 17.9344 16.5981 18.4008C16.5981 18.8671 16.9657 19.2457 17.4186 19.2457C18.1858 19.2457 18.8092 19.8876 18.8092 20.6776C18.8092 21.4677 18.1858 22.1096 17.4186 22.1096C16.6513 22.1096 16.028 21.4677 16.028 20.6776C16.028 20.2113 15.6603 19.8327 15.2074 19.8327H9.29869C8.84581 19.8327 8.47818 20.2113 8.47818 20.6776C8.47818 21.4677 7.8548 22.1096 7.08757 22.1096C6.32033 22.1096 5.69696 21.4677 5.69696 20.6776C5.69696 19.8876 6.32033 19.2457 7.08757 19.2457C7.54045 19.2457 7.90808 18.8671 7.90808 18.4008C7.90808 18.1429 7.76422 17.4077 7.73758 17.2047L6.8851 11.0435C6.85846 10.7802 6.82649 10.5223 6.79453 10.2754C6.83182 10.2809 6.86379 10.2864 6.90109 10.2919L19.3313 10.6595C19.6723 10.6704 19.9281 11.1807 20.0186 11.658C20.1518 12.3548 19.9813 13.0515 19.6403 13.2381L19.6297 13.2326Z" fill="black" fill-opacity="0.2"/>
</svg>
