<svg width="23" height="23" viewBox="0 0 23 23" fill="none" xmlns="http://www.w3.org/2000/svg">
<path d="M20.5001 11.2017L9.07267 14.8C8.55119 14.9652 8.26792 15.4976 8.44175 15.9932C8.57695 16.391 8.96966 16.6419 9.38813 16.6419C9.49114 16.6419 9.60059 16.6236 9.7036 16.593L21.189 12.9764C21.189 12.9764 21.2469 12.958 21.2791 12.9458C22.8178 12.2971 23.2041 10.4858 22.9079 9.07829C22.586 7.51172 21.5109 6.47754 20.1847 6.44082L5.1648 6.03082H5.13905C4.98454 6.03082 4.83646 6.06754 4.70771 6.12873C4.10253 2.77528 3.22696 0.835424 2.03593 0.217361C1.45007 -0.0886104 0.88353 -0.027416 0.548754 0.131689C0.0594656 0.364228 -0.140113 0.933335 0.104532 1.39841C0.30411 1.7717 0.72258 1.96752 1.14105 1.91244C1.39213 2.11438 2.4544 3.28932 3.12396 8.99874L4.16047 15.9015C4.17335 15.9994 4.21198 16.0912 4.25704 16.1768C2.76343 16.6174 1.66897 17.9453 1.66897 19.5119C1.66897 21.4334 3.3171 23 5.33863 23C7.01895 23 8.44175 21.923 8.87309 20.4543H14.2939C14.7317 21.923 16.148 23 17.8284 23C19.8499 23 21.498 21.4334 21.498 19.5119C21.498 17.5904 19.8499 16.0238 17.8284 16.0238C17.2811 16.0238 16.8369 16.4461 16.8369 16.9662C16.8369 17.4864 17.2811 17.9086 17.8284 17.9086C18.7554 17.9086 19.5087 18.6246 19.5087 19.5058C19.5087 20.387 18.7554 21.103 17.8284 21.103C16.9013 21.103 16.148 20.387 16.148 19.5058C16.148 18.9857 15.7038 18.5634 15.1566 18.5634H8.01684C7.46961 18.5634 7.02539 18.9857 7.02539 19.5058C7.02539 20.387 6.27214 21.103 5.34507 21.103C4.41799 21.103 3.66475 20.387 3.66475 19.5058C3.66475 18.6246 4.41799 17.9086 5.34507 17.9086C5.8923 17.9086 6.33652 17.4864 6.33652 16.9662C6.33652 16.6786 6.16269 15.8586 6.1305 15.6322L5.10042 8.76008C5.06823 8.46635 5.02961 8.17874 4.99098 7.90336C5.03604 7.90948 5.07467 7.9156 5.11974 7.92172L20.1396 8.33173C20.5516 8.34396 20.8607 8.91307 20.9701 9.44546C21.1311 10.2226 20.925 10.9998 20.513 11.2079L20.5001 11.2017Z" fill="#A88686"/>
<path d="M20.5001 11.2017L9.07267 14.8C8.55119 14.9652 8.26792 15.4976 8.44175 15.9932C8.57695 16.391 8.96966 16.6419 9.38813 16.6419C9.49114 16.6419 9.60059 16.6236 9.7036 16.593L21.189 12.9764C21.189 12.9764 21.2469 12.958 21.2791 12.9458C22.8178 12.2971 23.2041 10.4858 22.9079 9.07829C22.586 7.51172 21.5109 6.47754 20.1847 6.44082L5.1648 6.03082H5.13905C4.98454 6.03082 4.83646 6.06754 4.70771 6.12873C4.10253 2.77528 3.22696 0.835424 2.03593 0.217361C1.45007 -0.0886104 0.88353 -0.027416 0.548754 0.131689C0.0594656 0.364228 -0.140113 0.933335 0.104532 1.39841C0.30411 1.7717 0.72258 1.96752 1.14105 1.91244C1.39213 2.11438 2.4544 3.28932 3.12396 8.99874L4.16047 15.9015C4.17335 15.9994 4.21198 16.0912 4.25704 16.1768C2.76343 16.6174 1.66897 17.9453 1.66897 19.5119C1.66897 21.4334 3.3171 23 5.33863 23C7.01895 23 8.44175 21.923 8.87309 20.4543H14.2939C14.7317 21.923 16.148 23 17.8284 23C19.8499 23 21.498 21.4334 21.498 19.5119C21.498 17.5904 19.8499 16.0238 17.8284 16.0238C17.2811 16.0238 16.8369 16.4461 16.8369 16.9662C16.8369 17.4864 17.2811 17.9086 17.8284 17.9086C18.7554 17.9086 19.5087 18.6246 19.5087 19.5058C19.5087 20.387 18.7554 21.103 17.8284 21.103C16.9013 21.103 16.148 20.387 16.148 19.5058C16.148 18.9857 15.7038 18.5634 15.1566 18.5634H8.01684C7.46961 18.5634 7.02539 18.9857 7.02539 19.5058C7.02539 20.387 6.27214 21.103 5.34507 21.103C4.41799 21.103 3.66475 20.387 3.66475 19.5058C3.66475 18.6246 4.41799 17.9086 5.34507 17.9086C5.8923 17.9086 6.33652 17.4864 6.33652 16.9662C6.33652 16.6786 6.16269 15.8586 6.1305 15.6322L5.10042 8.76008C5.06823 8.46635 5.02961 8.17874 4.99098 7.90336C5.03604 7.90948 5.07467 7.9156 5.11974 7.92172L20.1396 8.33173C20.5516 8.34396 20.8607 8.91307 20.9701 9.44546C21.1311 10.2226 20.925 10.9998 20.513 11.2079L20.5001 11.2017Z" fill="black" fill-opacity="0.2"/>
</svg>
