<svg id="1" data-name="1" xmlns="http://www.w3.org/2000/svg" viewBox="0 0 23 26">
  <defs>
  </defs>
  <path class="cls-1" fill="rgba(168, 134, 134, 1)" d="M1.77,1.73c-.47,0-.92,.18-1.25,.51-.33,.33-.52,.77-.52,1.23v1.73c0,.46,.19,.9,.52,1.23,.33,.33,.78,.51,1.25,.51h.88v15.6c0,.92,.37,1.8,1.04,2.45,.66,.65,1.56,1.02,2.5,1.02h10.62c.94,0,1.84-.37,2.5-1.02,.66-.65,1.04-1.53,1.04-2.45V6.93h.88c.47,0,.92-.18,1.25-.51s.52-.77,.52-1.23v-1.73c0-.46-.19-.9-.52-1.23-.33-.33-.78-.51-1.25-.51h-6.19c0-.46-.19-.9-.52-1.23-.33-.33-.78-.51-1.25-.51h-3.54c-.47,0-.92,.18-1.25,.51-.33,.33-.52,.77-.52,1.23H1.77Zm5.31,6.93c.23,0,.46,.09,.63,.25s.26,.38,.26,.61v12.13c0,.23-.09,.45-.26,.61-.17,.16-.39,.25-.63,.25s-.46-.09-.63-.25c-.17-.16-.26-.38-.26-.61V9.53c0-.23,.09-.45,.26-.61,.17-.16,.39-.25,.63-.25Zm4.42,0c.23,0,.46,.09,.63,.25,.17,.16,.26,.38,.26,.61v12.13c0,.23-.09,.45-.26,.61-.17,.16-.39,.25-.63,.25s-.46-.09-.63-.25c-.17-.16-.26-.38-.26-.61V9.53c0-.23,.09-.45,.26-.61s.39-.25,.63-.25Zm5.31,.87v12.13c0,.23-.09,.45-.26,.61-.17,.16-.39,.25-.63,.25s-.46-.09-.63-.25c-.17-.16-.26-.38-.26-.61V9.53c0-.23,.09-.45,.26-.61,.17-.16,.39-.25,.63-.25s.46,.09,.63,.25c.17,.16,.26,.38,.26,.61Z"/>
  <path fill="rgba(168, 134, 134, 1)" d="M1.77,1.73c-.47,0-.92,.18-1.25,.51-.33,.33-.52,.77-.52,1.23v1.73c0,.46,.19,.9,.52,1.23,.33,.33,.78,.51,1.25,.51h.88v15.6c0,.92,.37,1.8,1.04,2.45,.66,.65,1.56,1.02,2.5,1.02h10.62c.94,0,1.84-.37,2.5-1.02,.66-.65,1.04-1.53,1.04-2.45V6.93h.88c.47,0,.92-.18,1.25-.51s.52-.77,.52-1.23v-1.73c0-.46-.19-.9-.52-1.23-.33-.33-.78-.51-1.25-.51h-6.19c0-.46-.19-.9-.52-1.23-.33-.33-.78-.51-1.25-.51h-3.54c-.47,0-.92,.18-1.25,.51-.33,.33-.52,.77-.52,1.23H1.77Zm5.31,6.93c.23,0,.46,.09,.63,.25s.26,.38,.26,.61v12.13c0,.23-.09,.45-.26,.61-.17,.16-.39,.25-.63,.25s-.46-.09-.63-.25c-.17-.16-.26-.38-.26-.61V9.53c0-.23,.09-.45,.26-.61,.17-.16,.39-.25,.63-.25Zm4.42,0c.23,0,.46,.09,.63,.25,.17,.16,.26,.38,.26,.61v12.13c0,.23-.09,.45-.26,.61-.17,.16-.39,.25-.63,.25s-.46-.09-.63-.25c-.17-.16-.26-.38-.26-.61V9.53c0-.23,.09-.45,.26-.61s.39-.25,.63-.25Zm5.31,.87v12.13c0,.23-.09,.45-.26,.61-.17,.16-.39,.25-.63,.25s-.46-.09-.63-.25c-.17-.16-.26-.38-.26-.61V9.53c0-.23,.09-.45,.26-.61,.17-.16,.39-.25,.63-.25s.46,.09,.63,.25c.17,.16,.26,.38,.26,.61Z"/>
</svg>