<svg width="37" height="37" viewBox="0 0 37 37" fill="none" xmlns="http://www.w3.org/2000/svg">
<g clip-path="url(#clip0_713_8897)">
<path d="M9.25 1.15625C9.25 0.849593 9.12818 0.555497 8.91134 0.338658C8.6945 0.121819 8.40041 0 8.09375 0C7.78709 0 7.493 0.121819 7.27616 0.338658C7.05932 0.555497 6.9375 0.849593 6.9375 1.15625V2.3125H4.625C3.39837 2.3125 2.22199 2.79978 1.35463 3.66713C0.487275 4.53449 0 5.71087 0 6.9375L0 9.25H37V6.9375C37 5.71087 36.5127 4.53449 35.6454 3.66713C34.778 2.79978 33.6016 2.3125 32.375 2.3125H30.0625V1.15625C30.0625 0.849593 29.9407 0.555497 29.7238 0.338658C29.507 0.121819 29.2129 0 28.9062 0C28.5996 0 28.3055 0.121819 28.0887 0.338658C27.8718 0.555497 27.75 0.849593 27.75 1.15625V2.3125H9.25V1.15625ZM37 32.375V11.5625H0V32.375C0 33.6016 0.487275 34.778 1.35463 35.6454C2.22199 36.5127 3.39837 37 4.625 37H32.375C33.6016 37 34.778 36.5127 35.6454 35.6454C36.5127 34.778 37 33.6016 37 32.375ZM28.9062 16.1875H31.2188C31.5254 16.1875 31.8195 16.3093 32.0363 16.5262C32.2532 16.743 32.375 17.0371 32.375 17.3438V19.6562C32.375 19.9629 32.2532 20.257 32.0363 20.4738C31.8195 20.6907 31.5254 20.8125 31.2188 20.8125H28.9062C28.5996 20.8125 28.3055 20.6907 28.0887 20.4738C27.8718 20.257 27.75 19.9629 27.75 19.6562V17.3438C27.75 17.0371 27.8718 16.743 28.0887 16.5262C28.3055 16.3093 28.5996 16.1875 28.9062 16.1875Z" fill="#EAC645"/>
</g>
<defs>
<clipPath id="clip0_713_8897">
<rect width="37" height="37" fill="white"/>
</clipPath>
</defs>
</svg>
