<svg width="51" height="36" viewBox="0 0 51 36" fill="none" xmlns="http://www.w3.org/2000/svg">
<path d="M1.73083 0.860211C0.74137 1.28553 0.2865 2.17161 0 3.15812V32.8449C0.827011 35.0099 1.65993 35.5356 3.95193 35.5356C6.24393 35.5356 8.53299 35.5238 10.825 35.5445C11.5043 35.5504 12.0478 35.3495 12.5085 34.8504C13.0904 34.2212 13.7018 33.6187 14.3398 32.966C14.9807 33.6187 15.5773 34.1947 16.1356 34.8061C16.617 35.3318 17.1812 35.5445 17.8989 35.5445C27.7433 35.5326 37.5877 35.5356 47.432 35.5356C49.7122 35.5356 51 34.2419 51 31.947V4.05306C51 1.75811 49.7152 0.464427 47.432 0.464427C37.5877 0.464427 27.7433 0.467381 17.8989 0.455566C17.1812 0.455566 16.617 0.668226 16.1326 1.19397C15.5626 1.81127 14.9512 2.39018 14.328 3.01635C13.6398 2.31634 12.9988 1.66655 12.3609 1.0138C11.9946 0.63869 11.5516 0.464427 11.0229 0.464427C8.45028 0.470334 5.87768 0.446706 3.30509 0.485103C2.77639 0.493964 2.22113 0.650504 1.73083 0.860211Z" fill="#EAC645"/>
<path d="M23.9366 29.156C23.2927 29.1235 22.7787 28.8695 22.4863 28.2729C22.1762 27.6379 22.2796 27.0412 22.7197 26.5096C23.9661 25.0003 25.2214 23.4969 26.4767 21.9935C30.4611 17.2116 34.4455 12.4327 38.424 7.64784C38.8789 7.10142 39.3987 6.73517 40.1401 6.8799C41.3511 7.11619 41.8384 8.48666 41.0468 9.47908C40.1342 10.6192 39.1861 11.7297 38.2498 12.8521C33.9493 18.015 29.6429 23.1779 25.3454 28.3438C24.9703 28.7957 24.5539 29.1472 23.9336 29.159L23.9366 29.156Z" fill="#FFFDF6"/>
<path d="M31.8717 11.635C31.8628 14.246 29.6713 16.4287 27.075 16.4051C24.4581 16.3844 22.2843 14.1839 22.3168 11.5936C22.3522 8.98855 24.4995 6.85309 27.0898 6.84718C29.6949 6.84127 31.8806 9.0299 31.8717 11.635ZM28.6847 11.6468C28.6966 10.7784 27.9936 10.0518 27.1282 10.0341C26.2628 10.0164 25.5303 10.7135 25.5037 11.5789C25.4801 12.4649 26.1978 13.2093 27.0839 13.2152C27.9523 13.2211 28.6729 12.5122 28.6818 11.6468H28.6847Z" fill="#FFFDF6"/>
<path d="M41.4362 24.3879C41.4274 26.9989 39.2328 29.1816 36.6366 29.158C34.0197 29.1343 31.8458 26.9339 31.8813 24.3465C31.9167 21.7385 34.064 19.606 36.6573 19.603C39.2624 19.6001 41.448 21.7887 41.4392 24.3908L41.4362 24.3879ZM36.675 25.9681C37.5434 25.9592 38.2522 25.2415 38.2493 24.3731C38.2493 23.5047 37.5345 22.79 36.6691 22.7841C35.783 22.7782 35.0535 23.5166 35.0682 24.4026C35.083 25.2681 35.8066 25.974 36.675 25.9651V25.9681Z" fill="#FFFDF6"/>
<path d="M12.7744 16.3813V13.2563H15.9082V16.3813H12.7744Z" fill="#FFFDF6"/>
<path d="M12.7715 22.7494V19.6245H15.8964V22.7494H12.7715Z" fill="#FFFDF6"/>
</svg>
