<?xml version="1.0" encoding="UTF-8"?>
<svg id="_圖層_1" data-name="圖層 1" xmlns="http://www.w3.org/2000/svg" xmlns:xlink="http://www.w3.org/1999/xlink" viewBox="0 0 40 35">
  <defs>
    <style>
      .cls-1 {
        clip-path: url(#clippath);
      }

      .cls-2, .cls-3 {
        fill: none;
      }

      .cls-3 {
        stroke: #fff;
        stroke-width: 3px;
      }
    </style>
    <clipPath id="clippath">
      <path class="cls-2" d="M22.62,4.5c3.45-3.55,8.92-4.04,12.53-.97,4.24,3.62,4.47,10.13,.66,14.06h0s-15.12,15.61-15.12,15.61c0,0,0,0,0,0-.39,.4-1,.4-1.38,0L4.19,17.59C.39,13.66,.62,7.15,4.86,3.53c3.61-3.08,9.09-2.59,12.53,.96h0s1.54,1.59,1.54,1.59l1.08,1.11,1.08-1.11,1.54-1.59Z"/>
    </clipPath>
  </defs>
  <g class="cls-1">
    <image width="433" height="304" transform="translate(-118.18 -127.84)" xlink:href="../../../../../Downloads/watercolor-BKR 1.png"/>
  </g>
  <path class="cls-3" d="M22.62,4.5c3.45-3.55,8.92-4.04,12.53-.97,4.24,3.62,4.47,10.13,.66,14.06h0s-15.12,15.61-15.12,15.61c0,0,0,0,0,0-.39,.4-1,.4-1.38,0L4.19,17.59C.39,13.66,.62,7.15,4.86,3.53c3.61-3.08,9.09-2.59,12.53,.96h0s1.54,1.59,1.54,1.59l1.08,1.11,1.08-1.11,1.54-1.59Z"/>
</svg>