<?xml version="1.0" encoding="UTF-8"?>
<svg id="_圖層_1" data-name="圖層 1" xmlns="http://www.w3.org/2000/svg" viewBox="0 0 22.37 21.07">
  <defs>
    <style>
      .cls-1 {
        fill: #a88686;
      }
    </style>
  </defs>
  <path class="cls-1" d="M10.95,21.07L1.96,11.92C.61,10.53-.08,8.71,0,6.8,.1,4.8,1.05,2.9,2.62,1.56,5.05-.5,8.63-.49,11.23,1.43c2.6-1.93,6.18-1.93,8.61,.13h0c1.53,1.3,2.42,3.13,2.52,5.15,.09,2-.64,3.96-2.02,5.38l-1.13,1.13-8.25,7.84ZM6.94,2.5c-.97,0-1.93,.32-2.69,.97-1.04,.89-1.68,2.14-1.74,3.45-.06,1.22,.38,2.38,1.24,3.26l1.85,1.85,5.43,5.54,7.55-7.22c.88-.91,1.36-2.19,1.3-3.5-.06-1.32-.65-2.52-1.64-3.36h0c-1.72-1.46-4.4-1.25-6.1,.49l-.89,.92-.89-.92c-.94-.97-2.19-1.46-3.4-1.46Z"/>
</svg>