<svg width="41" height="42" viewBox="0 0 41 42" fill="none" xmlns="http://www.w3.org/2000/svg">
<g clip-path="url(#clip0_1190_6440)">
<path d="M40.879 12.7508C40.7094 9.04197 39.576 6.11463 37.5103 4.04971C35.4438 1.98322 32.5157 0.849825 28.8084 0.680955C26.6469 0.582775 25.9297 0.559998 20.5 0.559998C15.0702 0.559998 14.3531 0.582775 12.1908 0.680955C8.48276 0.851396 5.55464 1.984 3.48971 4.04971C1.42479 6.11542 0.291398 9.04276 0.120958 12.7516C0.0227778 14.9131 0 15.6302 0 21.06C0 26.4897 0.0227778 27.2076 0.120958 29.3692C0.291398 33.0796 1.42479 36.0069 3.48971 38.0703C5.55464 40.1352 8.48197 41.2686 12.1916 41.439C14.3531 41.5372 15.0702 41.56 20.5 41.56C25.9297 41.56 26.6469 41.5372 28.8092 41.439C32.518 41.2686 35.4454 40.136 37.5103 38.0703C39.5752 36.0054 40.7086 33.0772 40.879 29.3684C40.9772 27.2069 41 26.4897 41 21.06C41 15.6302 40.9772 14.9131 40.879 12.7508ZM20.5 37.1521C15.1292 37.1521 14.4969 37.1317 12.3927 37.0351C9.81565 36.9173 7.86933 36.2166 6.60713 34.9529C5.32607 33.6718 4.6451 31.7797 4.52492 29.1673C4.42831 27.0639 4.40789 26.4316 4.40789 21.06C4.40789 15.6884 4.42831 15.0569 4.52492 12.9527C4.64195 10.378 5.34257 8.43168 6.60713 7.16712C7.90625 5.86801 9.74496 5.20666 12.3927 5.08492C14.4969 4.98831 15.1299 4.96789 20.5 4.96789C25.8701 4.96789 26.5023 4.98831 28.6073 5.08492C31.2197 5.20509 33.1118 5.88607 34.3929 7.16712C35.692 8.46624 36.3541 10.305 36.4751 12.9527C36.5717 15.0561 36.5921 15.6884 36.5921 21.06C36.5921 26.4316 36.5717 27.0639 36.4751 29.1673C36.3565 31.7781 35.6755 33.6702 34.3929 34.9529C33.093 36.252 31.255 36.9141 28.6073 37.0351C26.5039 37.1317 25.8708 37.1521 20.5 37.1521Z" fill="white"/>
<path d="M20.5 9.94916C17.5326 9.94916 14.7427 11.1045 12.644 13.2032C10.5453 15.3019 9.38995 18.0918 9.38995 21.0592C9.38995 24.0266 10.5453 26.8165 12.644 28.9152C14.7427 31.0139 17.5326 32.1693 20.5 32.1693C23.4674 32.1693 26.2573 31.0139 28.356 28.9152C30.4547 26.8165 31.6101 24.0266 31.6101 21.0592C31.6101 18.0918 30.4547 15.3019 28.356 13.2032C26.2573 11.1045 23.4674 9.94916 20.5 9.94916ZM20.5 27.7622C19.5748 27.7622 18.6927 27.5744 17.8916 27.2351C17.491 27.0655 17.1093 26.8581 16.7527 26.617C17.1093 26.8581 17.4902 27.0655 17.8916 27.2351C18.6935 27.5744 19.5748 27.7622 20.5 27.7622C21.4253 27.7622 22.3073 27.5744 23.1085 27.2351C23.509 27.0655 23.8908 26.8581 24.2473 26.617C23.8908 26.8581 23.5098 27.0655 23.1085 27.2351C22.3065 27.5744 21.4253 27.7622 20.5 27.7622ZM27.2022 21.06C27.2022 21.7543 27.0969 22.4235 26.9006 23.0527C27.0961 22.4227 27.2022 21.7535 27.2022 21.06ZM14.5825 21.06C14.5825 17.7973 17.2365 15.1433 20.4992 15.1433C23.7619 15.1433 26.416 17.7973 26.416 21.06C26.416 24.3227 23.7619 26.9767 20.4992 26.9767C17.2365 26.9767 14.5825 24.3227 14.5825 21.06ZM16.4896 26.4308C16.2311 26.2376 15.9877 26.0263 15.7607 25.7993C15.5337 25.5724 15.3224 25.3281 15.1292 25.0705C15.3224 25.3289 15.5337 25.5724 15.7607 25.7993C15.9884 26.0271 16.2319 26.2376 16.4896 26.4308ZM15.1292 17.0503C15.3224 16.7919 15.5337 16.5484 15.7607 16.3214C15.5329 16.5492 15.3224 16.7927 15.1292 17.0503ZM14.3241 18.4516C13.9848 19.2535 13.7971 20.1348 13.7971 21.06C13.7971 21.9852 13.9848 22.8673 14.3241 23.6684C14.4937 24.069 14.7011 24.4507 14.9422 24.8073C14.7011 24.4507 14.4937 24.0698 14.3241 23.6684C13.9848 22.8665 13.7971 21.9852 13.7971 21.06C13.7971 20.1348 13.9848 19.2527 14.3241 18.4516C14.4937 18.051 14.7011 17.6693 14.9422 17.3127C14.7011 17.6693 14.4937 18.0502 14.3241 18.4516ZM25.2394 25.7993C25.0116 26.0271 24.7681 26.2376 24.5105 26.4308C24.7689 26.2376 25.0124 26.0263 25.2394 25.7993ZM10.1887 20.529C10.2021 20.2651 10.2257 20.0036 10.2587 19.7452C10.2806 19.5732 10.3066 19.4019 10.3372 19.2323C10.4126 18.8089 10.5147 18.3934 10.6404 17.9897C10.7158 17.747 10.7998 17.5082 10.8925 17.2742C10.9538 17.1179 11.0197 16.9631 11.0881 16.8108C11.019 16.9631 10.9538 17.1179 10.8925 17.2742C10.7998 17.5082 10.7158 17.747 10.6404 17.9897C10.5147 18.3942 10.4134 18.8089 10.3372 19.2323C10.3066 19.4019 10.2806 19.5724 10.2587 19.7452C10.2257 20.0036 10.2029 20.2651 10.1887 20.529C10.1801 20.705 10.1754 20.8825 10.1754 21.06C10.1754 20.8817 10.1801 20.705 10.1887 20.529ZM30.2285 17.5946C30.2104 17.5452 30.1923 17.4949 30.1743 17.4454C30.1931 17.4949 30.2112 17.5444 30.2285 17.5946Z" fill="white"/>
<path d="M33.5169 9.65279C33.2708 9.19959 32.9388 8.79848 32.5443 8.47291C32.3958 8.35049 32.2396 8.23849 32.0742 8.13822C31.8542 8.00408 31.6211 7.89208 31.375 7.80222C30.9466 7.64465 30.4831 7.56 30 7.56C29.5859 7.56 29.1862 7.62251 28.8099 7.73971C28.6849 7.77878 28.5625 7.82306 28.4427 7.87385C28.263 7.94938 28.0898 8.03794 27.9258 8.13822C27.7057 8.27235 27.5 8.42602 27.3099 8.59793C27.263 8.6409 27.2161 8.68518 27.1706 8.73076C27.0807 8.82062 26.9935 8.91569 26.9128 9.01466C26.8724 9.06415 26.832 9.11494 26.7943 9.16573C26.7174 9.26861 26.6458 9.3754 26.5781 9.48479C26.5443 9.53949 26.513 9.59549 26.4818 9.65279C26.4206 9.76609 26.3646 9.88329 26.3138 10.0031C26.112 10.4823 26 11.0085 26 11.5606C26 12.0438 26.0859 12.5074 26.2422 12.9359C26.2747 13.0244 26.3112 13.1117 26.3503 13.1976C26.3776 13.2588 26.4062 13.3187 26.4375 13.3787C26.4818 13.4659 26.5286 13.5519 26.5794 13.6339C26.6458 13.7433 26.7187 13.8501 26.7956 13.953C26.8333 14.0038 26.8737 14.0545 26.9141 14.104C26.957 14.1561 27.0013 14.2056 27.0456 14.2551C27.2292 14.4557 27.4323 14.6367 27.6523 14.7969C27.7096 14.8385 27.7682 14.8789 27.8268 14.9167C27.9141 14.9727 28.0026 15.0274 28.0937 15.0768C28.151 15.1081 28.2083 15.1368 28.2656 15.1654C28.7904 15.418 29.3789 15.56 30 15.56C32.2096 15.56 34 13.7693 34 11.5593C34 10.9382 33.8581 10.3495 33.6055 9.82469C33.5768 9.76609 33.5482 9.70878 33.5169 9.65279Z" fill="white"/>
</g>
<g clip-path="url(#clip1_1190_6440)">
<path d="M20.5 6.71273C25.1724 6.71273 25.7268 6.73051 27.5718 6.81459C29.479 6.90209 31.4437 7.33685 32.8334 8.7266C34.2361 10.1293 34.6579 12.0748 34.7454 13.9882C34.8302 15.8332 34.8473 16.387 34.8473 21.06C34.8473 25.733 34.8295 26.2868 34.7454 28.1318C34.6593 30.0287 34.2143 32.0125 32.8334 33.3934C31.4525 34.7743 29.4865 35.2179 27.5718 35.3054C25.7268 35.3902 25.173 35.4073 20.5 35.4073C15.827 35.4073 15.2732 35.3895 13.4282 35.3054C11.5456 35.2193 9.53584 34.7647 8.1666 33.3934C6.7707 31.9975 6.34209 30.0335 6.25459 28.1318C6.16982 26.2868 6.15273 25.733 6.15273 21.06C6.15273 16.387 6.17051 15.8332 6.25459 13.9882C6.34072 12.0981 6.78984 10.1034 8.1666 8.7266C9.5666 7.3266 11.5196 6.90209 13.4282 6.81459C15.2732 6.72982 15.827 6.71273 20.5 6.71273ZM20.5 3.56C15.747 3.56 15.1509 3.58051 13.284 3.66527C10.579 3.789 7.89248 4.54164 5.93672 6.4974C3.97412 8.46 3.229 11.1404 3.10527 13.844C3.02051 15.7109 3 16.307 3 21.06C3 25.813 3.02051 26.4091 3.10527 28.276C3.229 30.9783 3.98438 33.6716 5.9374 35.6233C7.89863 37.5845 10.5838 38.3317 13.2847 38.4554C15.1516 38.5402 15.7477 38.5607 20.5007 38.5607C25.2537 38.5607 25.8498 38.5402 27.7167 38.4554C30.4203 38.3317 33.1096 37.5777 35.064 35.6233C37.0184 33.6689 37.7724 30.9796 37.8961 28.276C37.9809 26.4091 38.0014 25.813 38.0014 21.06C38.0014 16.307 37.9809 15.7109 37.8961 13.844C37.7724 11.139 37.0184 8.45111 35.064 6.49672C33.1041 4.53822 30.4121 3.78763 27.716 3.66527C25.8491 3.58051 25.253 3.56 20.5 3.56Z" fill="#A88686"/>
<path d="M20.5 6.71273C25.1724 6.71273 25.7268 6.73051 27.5718 6.81459C29.479 6.90209 31.4437 7.33685 32.8334 8.7266C34.2361 10.1293 34.6579 12.0748 34.7454 13.9882C34.8302 15.8332 34.8473 16.387 34.8473 21.06C34.8473 25.733 34.8295 26.2868 34.7454 28.1318C34.6593 30.0287 34.2143 32.0125 32.8334 33.3934C31.4525 34.7743 29.4865 35.2179 27.5718 35.3054C25.7268 35.3902 25.173 35.4073 20.5 35.4073C15.827 35.4073 15.2732 35.3895 13.4282 35.3054C11.5456 35.2193 9.53584 34.7647 8.1666 33.3934C6.7707 31.9975 6.34209 30.0335 6.25459 28.1318C6.16982 26.2868 6.15273 25.733 6.15273 21.06C6.15273 16.387 6.17051 15.8332 6.25459 13.9882C6.34072 12.0981 6.78984 10.1034 8.1666 8.7266C9.5666 7.3266 11.5196 6.90209 13.4282 6.81459C15.2732 6.72982 15.827 6.71273 20.5 6.71273ZM20.5 3.56C15.747 3.56 15.1509 3.58051 13.284 3.66527C10.579 3.789 7.89248 4.54164 5.93672 6.4974C3.97412 8.46 3.229 11.1404 3.10527 13.844C3.02051 15.7109 3 16.307 3 21.06C3 25.813 3.02051 26.4091 3.10527 28.276C3.229 30.9783 3.98438 33.6716 5.9374 35.6233C7.89863 37.5845 10.5838 38.3317 13.2847 38.4554C15.1516 38.5402 15.7477 38.5607 20.5007 38.5607C25.2537 38.5607 25.8498 38.5402 27.7167 38.4554C30.4203 38.3317 33.1096 37.5777 35.064 35.6233C37.0184 33.6689 37.7724 30.9796 37.8961 28.276C37.9809 26.4091 38.0014 25.813 38.0014 21.06C38.0014 16.307 37.9809 15.7109 37.8961 13.844C37.7724 11.139 37.0184 8.45111 35.064 6.49672C33.1041 4.53822 30.4121 3.78763 27.716 3.66527C25.8491 3.58051 25.253 3.56 20.5 3.56Z" fill="black" fill-opacity="0.2"/>
<path d="M20.5 12.0735C15.5371 12.0735 11.5135 16.0971 11.5135 21.06C11.5135 26.0229 15.5371 30.0465 20.5 30.0465C25.4629 30.0465 29.4865 26.0229 29.4865 21.06C29.4865 16.0971 25.4629 12.0735 20.5 12.0735ZM20.5 26.8931C17.2782 26.8931 14.6669 24.2811 14.6669 21.06C14.6669 17.8389 17.2789 15.2269 20.5 15.2269C23.7211 15.2269 26.3331 17.8389 26.3331 21.06C26.3331 24.2811 23.7211 26.8931 20.5 26.8931Z" fill="#A88686"/>
<path d="M20.5 12.0735C15.5371 12.0735 11.5135 16.0971 11.5135 21.06C11.5135 26.0229 15.5371 30.0465 20.5 30.0465C25.4629 30.0465 29.4865 26.0229 29.4865 21.06C29.4865 16.0971 25.4629 12.0735 20.5 12.0735ZM20.5 26.8931C17.2782 26.8931 14.6669 24.2811 14.6669 21.06C14.6669 17.8389 17.2789 15.2269 20.5 15.2269C23.7211 15.2269 26.3331 17.8389 26.3331 21.06C26.3331 24.2811 23.7211 26.8931 20.5 26.8931Z" fill="black" fill-opacity="0.2"/>
<path d="M29.842 13.818C31.0018 13.818 31.942 12.8778 31.942 11.718C31.942 10.5582 31.0018 9.61801 29.842 9.61801C28.6822 9.61801 27.742 10.5582 27.742 11.718C27.742 12.8778 28.6822 13.818 29.842 13.818Z" fill="#A88686"/>
<path d="M29.842 13.818C31.0018 13.818 31.942 12.8778 31.942 11.718C31.942 10.5582 31.0018 9.61801 29.842 9.61801C28.6822 9.61801 27.742 10.5582 27.742 11.718C27.742 12.8778 28.6822 13.818 29.842 13.818Z" fill="black" fill-opacity="0.2"/>
</g>
<defs>
<clipPath id="clip0_1190_6440">
<rect width="41" height="41" fill="white" transform="translate(0 0.559998)"/>
</clipPath>
<clipPath id="clip1_1190_6440">
<rect width="35" height="35" fill="white" transform="translate(3 3.56)"/>
</clipPath>
</defs>
</svg>
