<svg width="23" height="41" viewBox="0 0 23 41" fill="none" xmlns="http://www.w3.org/2000/svg">
<g clip-path="url(#clip0_1190_6451)">
<path fill-rule="evenodd" clip-rule="evenodd" d="M7.63624 38.2148C6.37721 38.2148 5.3554 37.1641 5.3554 35.8696V22.9052H4.56166C3.30264 22.9052 2.28082 21.8546 2.28082 20.56V15.288C2.28082 13.9934 3.30264 12.9427 4.56166 12.9427H5.3554V12.1172C5.3554 4.49996 10.2181 2.90521 14.3054 2.90521H18.4109C19.67 2.90521 20.6918 3.95587 20.6918 5.25043V10.5225C20.6918 11.817 19.67 12.8677 18.4109 12.8677H16.0754V12.9334H18.4383C19.0861 12.9334 19.6973 13.2148 20.1352 13.712C20.564 14.2092 20.7739 14.8658 20.71 15.5319L20.1626 20.8039C20.044 21.9953 19.0587 22.9052 17.8909 22.9052H16.0662V35.8696C16.0662 37.1641 15.0444 38.2148 13.7854 38.2148H7.63624Z" fill="#A88686"/>
<path fill-rule="evenodd" clip-rule="evenodd" d="M7.63624 38.2148C6.37721 38.2148 5.3554 37.1641 5.3554 35.8696V22.9052H4.56166C3.30264 22.9052 2.28082 21.8546 2.28082 20.56V15.288C2.28082 13.9934 3.30264 12.9427 4.56166 12.9427H5.3554V12.1172C5.3554 4.49996 10.2181 2.90521 14.3054 2.90521H18.4109C19.67 2.90521 20.6918 3.95587 20.6918 5.25043V10.5225C20.6918 11.817 19.67 12.8677 18.4109 12.8677H16.0754V12.9334H18.4383C19.0861 12.9334 19.6973 13.2148 20.1352 13.712C20.564 14.2092 20.7739 14.8658 20.71 15.5319L20.1626 20.8039C20.044 21.9953 19.0587 22.9052 17.8909 22.9052H16.0662V35.8696C16.0662 37.1641 15.0444 38.2148 13.7854 38.2148H7.63624Z" fill="black" fill-opacity="0.2"/>
<path d="M18.4109 5.25043V10.5225H15.8473C13.9314 10.5225 13.8036 11.2636 13.8036 12.6332V15.2786H18.4474L17.9 20.5506H13.7945V35.8602H7.64538V20.56H4.57081V15.288H7.64538V12.1172C7.64538 7.8114 9.37882 5.25043 14.3146 5.25043H18.4201M18.4201 0.559998H14.3146C7.70012 0.559998 3.59461 4.36863 3.12019 10.832C1.30464 11.4512 0 13.2148 0 15.288V20.56C0 22.6144 1.28639 24.3592 3.07457 24.9971V35.8696C3.07457 38.4587 5.11821 40.56 7.63626 40.56H13.7854C16.3035 40.56 18.3471 38.4587 18.3471 35.8696V25.2223C20.4728 25.0065 22.1971 23.2804 22.4252 21.0478L22.9726 15.7758C23.073 14.7626 22.854 13.7401 22.3522 12.8771C22.7445 12.1829 22.9635 11.3855 22.9635 10.5225V5.25043C22.9635 2.66131 20.9199 0.559998 18.4018 0.559998H18.4201Z" fill="white"/>
</g>
<defs>
<clipPath id="clip0_1190_6451">
<rect width="23" height="40" fill="white" transform="translate(0 0.559998)"/>
</clipPath>
</defs>
</svg>
