<svg width="40" height="41" viewBox="0 0 40 41" fill="none" xmlns="http://www.w3.org/2000/svg">
<g clip-path="url(#clip0_1190_6435)">
<path d="M35.3898 25.8287C39.4054 24.1178 40.4939 19.7396 39.8079 16.3968C39.0212 12.5451 36.0576 9.8866 32.4536 9.79009L13.318 9.26366C12.2204 5.00834 10.6288 2.50779 8.30547 1.297C7.38161 0.814439 6.35715 0.559998 5.33268 0.559998C4.43627 0.559998 3.5673 0.753022 2.79895 1.12152C0.301806 2.32354 -0.713515 5.24524 0.530482 7.64927C1.06101 8.65826 1.91168 9.43914 2.93615 9.89538C3.32033 10.878 3.95147 13.0276 4.45456 17.3619V17.4146L4.47286 17.4672L5.66197 25.4251C3.62218 27.0044 2.37818 29.4084 2.37818 32.0494C2.37818 36.7434 6.35715 40.56 11.2508 40.56C14.1962 40.56 16.9037 39.1474 18.5319 36.9101H21.7242C23.3523 39.1386 26.0599 40.56 29.0052 40.56C33.8989 40.56 37.8778 36.7434 37.8778 32.0494C37.8778 29.6453 36.8351 27.4782 35.1612 25.9252C35.2435 25.8989 35.3167 25.8638 35.399 25.8287H35.3898Z" fill="white"/>
<path d="M32.8013 20.1257L16.5653 25.2847C15.8244 25.5216 15.4219 26.2849 15.6689 26.9956C15.8609 27.5659 16.4189 27.9256 17.0135 27.9256C17.1598 27.9256 17.3153 27.8993 17.4617 27.8555L33.78 22.6701C33.78 22.6701 33.8623 22.6438 33.9081 22.6262C36.0942 21.6962 36.643 19.0991 36.2223 17.0812C35.7649 14.8351 34.2373 13.3523 32.3531 13.2996L11.013 12.7118H10.9764C10.7569 12.7118 10.5465 12.7644 10.3636 12.8522C9.50376 8.04409 8.25976 5.26278 6.56756 4.37662C5.73518 3.93793 4.93024 4.02566 4.45459 4.25378C3.75941 4.58719 3.47586 5.40316 3.82344 6.06997C4.107 6.60518 4.70156 6.88594 5.29612 6.80698C5.65285 7.09651 7.16211 8.78109 8.11341 16.9671L9.58608 26.864C9.60437 27.0044 9.65926 27.136 9.72328 27.2588C7.60117 27.8905 6.04617 29.7945 6.04617 32.0406C6.04617 34.7956 8.38782 37.0417 11.26 37.0417C13.6474 37.0417 15.6689 35.4975 16.2817 33.3918H23.9835C24.6055 35.4975 26.6179 37.0417 29.0052 37.0417C31.8774 37.0417 34.2191 34.7956 34.2191 32.0406C34.2191 29.2856 31.8774 27.0395 29.0052 27.0395C28.2277 27.0395 27.5966 27.6449 27.5966 28.3907C27.5966 29.1364 28.2277 29.7418 29.0052 29.7418C30.3224 29.7418 31.3926 30.7684 31.3926 32.0318C31.3926 33.2952 30.3224 34.3218 29.0052 34.3218C27.6881 34.3218 26.6179 33.2952 26.6179 32.0318C26.6179 31.286 25.9867 30.6806 25.2092 30.6806H15.0652C14.2877 30.6806 13.6565 31.286 13.6565 32.0318C13.6565 33.2952 12.5863 34.3218 11.2691 34.3218C9.95196 34.3218 8.88176 33.2952 8.88176 32.0318C8.88176 30.7684 9.95196 29.7418 11.2691 29.7418C12.0466 29.7418 12.6778 29.1364 12.6778 28.3907C12.6778 27.9783 12.4308 26.8026 12.3851 26.478L10.9215 16.6249C10.8758 16.2038 10.8209 15.7914 10.766 15.3966C10.8301 15.4054 10.885 15.4141 10.949 15.4229L32.289 16.0107C32.8744 16.0283 33.3135 16.8443 33.469 17.6076C33.6977 18.7219 33.405 19.8361 32.8196 20.1345L32.8013 20.1257Z" fill="#A88686"/>
<path d="M32.8013 20.1257L16.5653 25.2847C15.8244 25.5216 15.4219 26.2849 15.6689 26.9956C15.8609 27.5659 16.4189 27.9256 17.0135 27.9256C17.1598 27.9256 17.3153 27.8993 17.4617 27.8555L33.78 22.6701C33.78 22.6701 33.8623 22.6438 33.9081 22.6262C36.0942 21.6962 36.643 19.0991 36.2223 17.0812C35.7649 14.8351 34.2373 13.3523 32.3531 13.2996L11.013 12.7118H10.9764C10.7569 12.7118 10.5465 12.7644 10.3636 12.8522C9.50376 8.04409 8.25976 5.26278 6.56756 4.37662C5.73518 3.93793 4.93024 4.02566 4.45459 4.25378C3.75941 4.58719 3.47586 5.40316 3.82344 6.06997C4.107 6.60518 4.70156 6.88594 5.29612 6.80698C5.65285 7.09651 7.16211 8.78109 8.11341 16.9671L9.58608 26.864C9.60437 27.0044 9.65926 27.136 9.72328 27.2588C7.60117 27.8905 6.04617 29.7945 6.04617 32.0406C6.04617 34.7956 8.38782 37.0417 11.26 37.0417C13.6474 37.0417 15.6689 35.4975 16.2817 33.3918H23.9835C24.6055 35.4975 26.6179 37.0417 29.0052 37.0417C31.8774 37.0417 34.2191 34.7956 34.2191 32.0406C34.2191 29.2856 31.8774 27.0395 29.0052 27.0395C28.2277 27.0395 27.5966 27.6449 27.5966 28.3907C27.5966 29.1364 28.2277 29.7418 29.0052 29.7418C30.3224 29.7418 31.3926 30.7684 31.3926 32.0318C31.3926 33.2952 30.3224 34.3218 29.0052 34.3218C27.6881 34.3218 26.6179 33.2952 26.6179 32.0318C26.6179 31.286 25.9867 30.6806 25.2092 30.6806H15.0652C14.2877 30.6806 13.6565 31.286 13.6565 32.0318C13.6565 33.2952 12.5863 34.3218 11.2691 34.3218C9.95196 34.3218 8.88176 33.2952 8.88176 32.0318C8.88176 30.7684 9.95196 29.7418 11.2691 29.7418C12.0466 29.7418 12.6778 29.1364 12.6778 28.3907C12.6778 27.9783 12.4308 26.8026 12.3851 26.478L10.9215 16.6249C10.8758 16.2038 10.8209 15.7914 10.766 15.3966C10.8301 15.4054 10.885 15.4141 10.949 15.4229L32.289 16.0107C32.8744 16.0283 33.3135 16.8443 33.469 17.6076C33.6977 18.7219 33.405 19.8361 32.8196 20.1345L32.8013 20.1257Z" fill="black" fill-opacity="0.2"/>
</g>
<defs>
<clipPath id="clip0_1190_6435">
<rect width="40" height="40" fill="white" transform="translate(0 0.559998)"/>
</clipPath>
</defs>
</svg>
