<svg width="20" height="20" viewBox="0 0 20 20" fill="none" xmlns="http://www.w3.org/2000/svg">
<path d="M17.6948 12.6343C19.7026 11.7789 20.2468 9.58982 19.9038 7.9184C19.5105 5.99254 18.0287 4.6633 16.2267 4.61505L6.6589 4.35183C6.11008 2.22417 5.31428 0.973898 4.15261 0.368502C3.69069 0.127221 3.17845 0 2.66622 0C2.21801 0 1.78353 0.0965124 1.39935 0.280763C0.150781 0.881772 -0.35688 2.34262 0.265119 3.54464C0.530383 4.04913 0.95572 4.43957 1.46795 4.66769C1.66004 5.15903 1.97562 6.23382 2.22716 8.40096V8.42729L2.23631 8.45361L2.83086 12.4326C1.81097 13.2222 1.18897 14.4242 1.18897 15.7447C1.18897 18.0917 3.17845 20 5.62528 20C7.09796 20 8.45172 19.2937 9.26581 18.175H10.862C11.676 19.2893 13.0298 20 14.5025 20C16.9493 20 18.9388 18.0917 18.9388 15.7447C18.9388 14.5427 18.4174 13.4591 17.5805 12.6826C17.6216 12.6694 17.6582 12.6519 17.6994 12.6343H17.6948Z" fill="white"/>
</svg>

