<svg width="17" height="20" viewBox="0 0 17 20" fill="none" xmlns="http://www.w3.org/2000/svg">
<path d="M8.61204 9.71481C11.0186 9.71481 12.9694 7.76393 12.9694 5.35741C12.9694 2.95088 11.0186 1 8.61204 1C6.20552 1 4.25464 2.95088 4.25464 5.35741C4.25464 7.76393 6.20552 9.71481 8.61204 9.71481Z" stroke="#727272" stroke-width="1.3"/>
<path d="M12.9696 11.458H13.2761C14.5945 11.458 15.7067 12.4398 15.8703 13.7482L16.2106 16.4707C16.3406 17.511 15.5294 18.4299 14.4811 18.4299H2.74321C1.69483 18.4299 0.883682 17.511 1.01372 16.4707L1.35403 13.7482C1.51757 12.4398 2.62976 11.458 3.94829 11.458H4.25475" stroke="#727272" stroke-width="1.3" stroke-linecap="round" stroke-linejoin="round"/>
</svg>
