<svg width="20" height="22" viewBox="0 0 20 22" fill="none" xmlns="http://www.w3.org/2000/svg">
<path d="M9.86096 11C12.3462 11 14.361 8.98528 14.361 6.5C14.361 4.01472 12.3462 2 9.86096 2C7.37568 2 5.36096 4.01472 5.36096 6.5C5.36096 8.98528 7.37568 11 9.86096 11Z" stroke="#A88686" stroke-width="3"/>
<path d="M9.86096 11C12.3462 11 14.361 8.98528 14.361 6.5C14.361 4.01472 12.3462 2 9.86096 2C7.37568 2 5.36096 4.01472 5.36096 6.5C5.36096 8.98528 7.37568 11 9.86096 11Z" stroke="black" stroke-opacity="0.2" stroke-width="3"/>
<path d="M14.3613 12.7999H14.6778C16.0394 12.7999 17.188 13.8139 17.3569 15.165L17.7084 17.9766C17.8426 19.051 17.0049 19.9999 15.9222 19.9999H3.80026C2.71757 19.9999 1.87988 19.051 2.01416 17.9766L2.36561 15.165C2.53451 13.8139 3.6831 12.7999 5.04477 12.7999H5.36126" stroke="#A88686" stroke-width="3" stroke-linecap="round" stroke-linejoin="round"/>
<path d="M14.3613 12.7999H14.6778C16.0394 12.7999 17.188 13.8139 17.3569 15.165L17.7084 17.9766C17.8426 19.051 17.0049 19.9999 15.9222 19.9999H3.80026C2.71757 19.9999 1.87988 19.051 2.01416 17.9766L2.36561 15.165C2.53451 13.8139 3.6831 12.7999 5.04477 12.7999H5.36126" stroke="black" stroke-opacity="0.2" stroke-width="3" stroke-linecap="round" stroke-linejoin="round"/>
</svg>
