<svg width="15" height="15" viewBox="0 0 15 15" fill="none" xmlns="http://www.w3.org/2000/svg">
<path fill-rule="evenodd" clip-rule="evenodd" d="M2.14974 1.00642C2.30283 0.853538 2.48667 0.734943 2.68907 0.658492C2.89146 0.582042 3.10779 0.54948 3.32372 0.562967C3.53965 0.576453 3.75025 0.635679 3.94156 0.736719C4.13287 0.83776 4.30053 0.978307 4.43341 1.14905L6.00399 3.16689C6.29186 3.53703 6.39335 4.01918 6.27961 4.4742L5.801 6.39054C5.77625 6.48979 5.77759 6.59376 5.80488 6.69235C5.83217 6.79094 5.88448 6.88079 5.95674 6.95319L8.10655 9.10316C8.17903 9.17558 8.26903 9.22798 8.36777 9.25528C8.46652 9.28257 8.57065 9.28383 8.67003 9.25892L10.5853 8.78027C10.8099 8.72413 11.0442 8.71977 11.2707 8.76752C11.4972 8.81527 11.7098 8.91389 11.8926 9.05591L13.9102 10.6257C14.6356 11.1901 14.7021 12.2621 14.0529 12.9105L13.1481 13.8153C12.5007 14.4628 11.5329 14.7472 10.6308 14.4295C8.32195 13.6171 6.2256 12.2952 4.49729 10.5619C2.76422 8.83366 1.44241 6.73746 0.629908 4.4287C0.313168 3.52741 0.597534 2.55874 1.24501 1.91121L2.14974 1.00642Z" fill="#A88686"/>
<path fill-rule="evenodd" clip-rule="evenodd" d="M2.14974 1.00642C2.30283 0.853538 2.48667 0.734943 2.68907 0.658492C2.89146 0.582042 3.10779 0.54948 3.32372 0.562967C3.53965 0.576453 3.75025 0.635679 3.94156 0.736719C4.13287 0.83776 4.30053 0.978307 4.43341 1.14905L6.00399 3.16689C6.29186 3.53703 6.39335 4.01918 6.27961 4.4742L5.801 6.39054C5.77625 6.48979 5.77759 6.59376 5.80488 6.69235C5.83217 6.79094 5.88448 6.88079 5.95674 6.95319L8.10655 9.10316C8.17903 9.17558 8.26903 9.22798 8.36777 9.25528C8.46652 9.28257 8.57065 9.28383 8.67003 9.25892L10.5853 8.78027C10.8099 8.72413 11.0442 8.71977 11.2707 8.76752C11.4972 8.81527 11.7098 8.91389 11.8926 9.05591L13.9102 10.6257C14.6356 11.1901 14.7021 12.2621 14.0529 12.9105L13.1481 13.8153C12.5007 14.4628 11.5329 14.7472 10.6308 14.4295C8.32195 13.6171 6.2256 12.2952 4.49729 10.5619C2.76422 8.83366 1.44241 6.73746 0.629908 4.4287C0.313168 3.52741 0.597534 2.55874 1.24501 1.91121L2.14974 1.00642Z" fill="black" fill-opacity="0.2"/>
</svg>
