<svg width="99" height="73" viewBox="0 0 99 73" fill="none" xmlns="http://www.w3.org/2000/svg">
<path d="M75.911 9.73333C82.967 9.73333 88.7 15.4273 88.7 22.4353V50.5647C88.7 57.5727 82.967 63.2667 75.911 63.2667H23.089C16.033 63.2667 10.3 57.5727 10.3 50.5647V22.4353C10.3 15.4273 16.033 9.73333 23.089 9.73333H75.911ZM75.911 0H23.089C10.643 0 0.5 10.074 0.5 22.4353V50.5647C0.5 62.9747 10.643 73 23.089 73H75.911C88.406 73 98.5 62.926 98.5 50.5647V22.4353C98.5 10.0253 88.357 0 75.911 0Z" fill="#57AC6F"/>
</svg>
