<svg width="13" height="12" viewBox="0 0 13 12" fill="none" xmlns="http://www.w3.org/2000/svg">
<path d="M11.1518 1.8482C10.883 1.5793 10.5639 1.36598 10.2126 1.22045C9.86141 1.07491 9.48493 1 9.10473 1C8.72453 1 8.34806 1.07491 7.99682 1.22045C7.64558 1.36598 7.32645 1.5793 7.05767 1.8482L6.49986 2.40601L5.94205 1.8482C5.39913 1.30529 4.66278 1.00028 3.89498 1.00028C3.12719 1.00028 2.39084 1.30529 1.84792 1.8482C1.30501 2.39112 1 3.12747 1 3.89527C1 4.66306 1.30501 5.39941 1.84792 5.94233L2.40573 6.50014L6.49986 10.5943L10.594 6.50014L11.1518 5.94233C11.4207 5.67355 11.634 5.35442 11.7796 5.00318C11.9251 4.65194 12 4.27547 12 3.89527C12 3.51507 11.9251 3.13859 11.7796 2.78735C11.634 2.43611 11.4207 2.11698 11.1518 1.8482Z" stroke="#A88686" stroke-width="1.3" stroke-linecap="round" stroke-linejoin="round"/>
<path d="M11.1518 1.8482C10.883 1.5793 10.5639 1.36598 10.2126 1.22045C9.86141 1.07491 9.48493 1 9.10473 1C8.72453 1 8.34806 1.07491 7.99682 1.22045C7.64558 1.36598 7.32645 1.5793 7.05767 1.8482L6.49986 2.40601L5.94205 1.8482C5.39913 1.30529 4.66278 1.00028 3.89498 1.00028C3.12719 1.00028 2.39084 1.30529 1.84792 1.8482C1.30501 2.39112 1 3.12747 1 3.89527C1 4.66306 1.30501 5.39941 1.84792 5.94233L2.40573 6.50014L6.49986 10.5943L10.594 6.50014L11.1518 5.94233C11.4207 5.67355 11.634 5.35442 11.7796 5.00318C11.9251 4.65194 12 4.27547 12 3.89527C12 3.51507 11.9251 3.13859 11.7796 2.78735C11.634 2.43611 11.4207 2.11698 11.1518 1.8482Z" stroke="black" stroke-opacity="0.2" stroke-width="1.3" stroke-linecap="round" stroke-linejoin="round"/>
</svg>
