<svg width="18" height="15" viewBox="0 0 18 15" fill="none" xmlns="http://www.w3.org/2000/svg">
<path d="M15.8717 1.32611C15.4514 0.905694 14.9525 0.572191 14.4034 0.344652C13.8542 0.117114 13.2656 0 12.6712 0C12.0768 0 11.4882 0.117114 10.9391 0.344652C10.3899 0.572191 9.89099 0.905694 9.47077 1.32611L8.59867 2.19821L7.72656 1.32611C6.87775 0.477297 5.72652 0.000439969 4.52612 0.000439978C3.32572 0.000439986 2.17448 0.477297 1.32567 1.32611C0.476857 2.17492 8.94368e-09 3.32616 0 4.52656C-8.94368e-09 5.72696 0.476857 6.87819 1.32567 7.727L2.19777 8.5991L8.59867 15L14.9996 8.5991L15.8717 7.727C16.2921 7.30679 16.6256 6.80785 16.8531 6.25871C17.0807 5.70957 17.1978 5.12097 17.1978 4.52656C17.1978 3.93214 17.0807 3.34355 16.8531 2.7944C16.6256 2.24526 16.2921 1.74633 15.8717 1.32611Z" fill="#EAC645"/>
</svg>
