<svg width="34" height="34" viewBox="0 0 34 34" fill="none" xmlns="http://www.w3.org/2000/svg">
<path d="M30.0821 21.4784C33.4953 20.0241 34.4205 16.3027 33.8374 13.4613C33.1688 10.1873 30.6497 7.92762 27.5863 7.84558L11.321 7.39811C10.388 3.78109 9.03514 1.65563 7.06029 0.626453C6.27501 0.216275 5.40421 0 4.53341 0C3.77146 0 3.03284 0.164071 2.37973 0.477298C0.257158 1.49901 -0.605867 3.98245 0.451534 6.02588C0.902484 6.88353 1.62556 7.54727 2.49636 7.93507C2.82291 8.77034 3.35939 10.5975 3.78701 14.2816V14.3264L3.80256 14.3711L4.81331 21.1353C3.07949 22.4777 2.02208 24.5212 2.02208 26.766C2.02208 30.7559 5.40421 34 9.56384 34C12.0674 34 14.3688 32.7993 15.7527 30.8976H18.4662C19.8502 32.7918 22.1516 34 24.6551 34C28.8148 34 32.1969 30.7559 32.1969 26.766C32.1969 24.7225 31.3105 22.8805 29.8877 21.5604C29.9577 21.5381 30.0199 21.5082 30.0899 21.4784H30.0821Z" fill="#A88686"/>
<path d="M27.9567 16.6369L14.045 21.0173C13.4101 21.2185 13.0653 21.8666 13.2769 22.47C13.4415 22.9543 13.9196 23.2597 14.429 23.2597C14.5544 23.2597 14.6877 23.2374 14.8131 23.2001L28.7953 18.7973C28.7953 18.7973 28.8658 18.775 28.905 18.7601C30.7782 17.9704 31.2485 15.7653 30.8879 14.0518C30.4961 12.1447 29.1872 10.8857 27.5726 10.841L9.28759 10.3419H9.25624C9.06814 10.3419 8.88787 10.3866 8.73112 10.4611C7.99439 6.37861 6.92848 4.01704 5.47853 3.26461C4.76531 2.89213 4.0756 2.96662 3.66805 3.16032C3.07239 3.44341 2.82943 4.13623 3.12726 4.70241C3.37022 5.15685 3.87966 5.39524 4.3891 5.32819C4.69477 5.57403 5.98797 7.00438 6.80308 13.955L8.06493 22.3583C8.0806 22.4775 8.12763 22.5892 8.18249 22.6935C6.36417 23.2299 5.03179 24.8465 5.03179 26.7536C5.03179 29.0929 7.0382 31 9.4992 31C11.5448 31 13.2769 29.6888 13.802 27.9009H20.4013C20.9342 29.6888 22.6585 31 24.7041 31C27.1651 31 29.1715 29.0929 29.1715 26.7536C29.1715 24.4144 27.1651 22.5073 24.7041 22.5073C24.0379 22.5073 23.4971 23.0213 23.4971 23.6546C23.4971 24.2878 24.0379 24.8018 24.7041 24.8018C25.8327 24.8018 26.7497 25.6734 26.7497 26.7462C26.7497 27.819 25.8327 28.6906 24.7041 28.6906C23.5755 28.6906 22.6585 27.819 22.6585 26.7462C22.6585 26.113 22.1177 25.5989 21.4515 25.5989H12.7596C12.0934 25.5989 11.5526 26.113 11.5526 26.7462C11.5526 27.819 10.6356 28.6906 9.50704 28.6906C8.37843 28.6906 7.46143 27.819 7.46143 26.7462C7.46143 25.6734 8.37843 24.8018 9.50704 24.8018C10.1732 24.8018 10.714 24.2878 10.714 23.6546C10.714 23.3044 10.5024 22.3062 10.4632 22.0305L9.20921 13.6645C9.17002 13.3069 9.123 12.9567 9.07597 12.6215C9.13084 12.6289 9.17786 12.6364 9.23272 12.6438L27.5178 13.143C28.0194 13.1579 28.3956 13.8507 28.5288 14.4988C28.7248 15.4449 28.474 16.3911 27.9724 16.6443L27.9567 16.6369Z" fill="white"/>
<path d="M27.9567 16.6369L14.045 21.0173C13.4101 21.2185 13.0653 21.8666 13.2769 22.47C13.4415 22.9543 13.9196 23.2597 14.429 23.2597C14.5544 23.2597 14.6877 23.2374 14.8131 23.2001L28.7953 18.7973C28.7953 18.7973 28.8658 18.775 28.905 18.7601C30.7782 17.9704 31.2485 15.7653 30.8879 14.0518C30.4961 12.1447 29.1872 10.8857 27.5726 10.841L9.28759 10.3419H9.25624C9.06814 10.3419 8.88787 10.3866 8.73112 10.4611C7.99439 6.37861 6.92848 4.01704 5.47853 3.26461C4.76531 2.89213 4.0756 2.96662 3.66805 3.16032C3.07239 3.44341 2.82943 4.13623 3.12726 4.70241C3.37022 5.15685 3.87966 5.39524 4.3891 5.32819C4.69477 5.57403 5.98797 7.00438 6.80308 13.955L8.06493 22.3583C8.0806 22.4775 8.12763 22.5892 8.18249 22.6935C6.36417 23.2299 5.03179 24.8465 5.03179 26.7536C5.03179 29.0929 7.0382 31 9.4992 31C11.5448 31 13.2769 29.6888 13.802 27.9009H20.4013C20.9342 29.6888 22.6585 31 24.7041 31C27.1651 31 29.1715 29.0929 29.1715 26.7536C29.1715 24.4144 27.1651 22.5073 24.7041 22.5073C24.0379 22.5073 23.4971 23.0213 23.4971 23.6546C23.4971 24.2878 24.0379 24.8018 24.7041 24.8018C25.8327 24.8018 26.7497 25.6734 26.7497 26.7462C26.7497 27.819 25.8327 28.6906 24.7041 28.6906C23.5755 28.6906 22.6585 27.819 22.6585 26.7462C22.6585 26.113 22.1177 25.5989 21.4515 25.5989H12.7596C12.0934 25.5989 11.5526 26.113 11.5526 26.7462C11.5526 27.819 10.6356 28.6906 9.50704 28.6906C8.37843 28.6906 7.46143 27.819 7.46143 26.7462C7.46143 25.6734 8.37843 24.8018 9.50704 24.8018C10.1732 24.8018 10.714 24.2878 10.714 23.6546C10.714 23.3044 10.5024 22.3062 10.4632 22.0305L9.20921 13.6645C9.17002 13.3069 9.123 12.9567 9.07597 12.6215C9.13084 12.6289 9.17786 12.6364 9.23272 12.6438L27.5178 13.143C28.0194 13.1579 28.3956 13.8507 28.5288 14.4988C28.7248 15.4449 28.474 16.3911 27.9724 16.6443L27.9567 16.6369Z" fill="black" fill-opacity="0"/>
</svg>
