<?xml version="1.0" encoding="UTF-8"?>
<svg id="_圖層_1" data-name="圖層 1" xmlns="http://www.w3.org/2000/svg" viewBox="0 0 18.81 21.74">
  <defs>
    <style>
      .cls-1 {
        fill: #fff;
      }

      .cls-2 {
        fill: #a88686;
        stroke: #a88686;
        stroke-miterlimit: 10;
        stroke-width: .4px;
      }
    </style>
  </defs>
  <path class="cls-1" d="M18.81,4.53c0-.87-.71-1.58-1.58-1.58h-4.12c-.39-1.69-1.9-2.95-3.7-2.95s-3.31,1.26-3.7,2.95H1.58c-.87,0-1.58,.71-1.58,1.58,0,.67,.43,1.25,1.02,1.48-.1,.25-.14,.51-.11,.78l1.3,10.42c.04,2.5,2.14,4.53,4.71,4.53h4.64c1.27,0,2.51-.51,3.4-1.4,.83-.84,1.3-1.92,1.31-3.06l1.31-10.49c.03-.24,0-.48-.08-.7,.74-.14,1.3-.78,1.3-1.55Z"/>
  <g>
    <path class="cls-2" d="M16.66,4.45h-4.69s.03-.09,.03-.14c0-1.43-1.16-2.59-2.59-2.59s-2.59,1.16-2.59,2.59c0,.05,.02,.1,.03,.14H2.14c-.3,0-.54,.24-.54,.54s.24,.54,.54,.54h14.52c.3,0,.54-.24,.54-.54s-.24-.54-.54-.54Zm-8.77-.14c0-.83,.68-1.51,1.51-1.51s1.51,.68,1.51,1.51c0,.05,.02,.1,.03,.14h-3.08s.03-.09,.03-.14Z"/>
    <path class="cls-2" d="M7.59,16.28s.02,0,.03,0c.3-.02,.53-.28,.51-.57l-.46-7.47c-.02-.3-.27-.53-.57-.51-.3,.02-.53,.28-.51,.57l.46,7.47c.02,.29,.26,.51,.54,.51Z"/>
    <path class="cls-2" d="M10.94,16.29c.28,0,.52-.21,.54-.5l.61-7.46c.02-.3-.2-.56-.5-.58-.29-.02-.56,.2-.58,.5l-.61,7.46c-.02,.3,.2,.56,.5,.58,.01,0,.03,0,.04,0Z"/>
    <path class="cls-2" d="M15.61,6.36c-.3-.04-.57,.17-.6,.47l-1.22,9.86c0,1.24-1.06,2.25-2.36,2.25H7.11c-1.3,0-2.36-1.01-2.37-2.32L3.52,6.83c-.04-.3-.3-.51-.6-.47-.3,.04-.51,.31-.47,.6l1.22,9.72c0,1.84,1.55,3.34,3.45,3.34h4.31c1.9,0,3.45-1.5,3.44-3.27l1.22-9.79c.04-.3-.17-.57-.47-.6Z"/>
  </g>
</svg>