<svg width="33" height="31" viewBox="0 0 33 31" fill="none" xmlns="http://www.w3.org/2000/svg">
<path d="M28.836 3.98333L28.8354 3.98283C25.2823 0.941847 20.0682 1.53513 16.8966 4.8218L16.5004 5.23184L16.1049 4.82251C16.1047 4.82231 16.1045 4.8221 16.1043 4.8219C12.9377 1.53447 7.71788 0.942373 4.16544 3.98283L4.16486 3.98333C0.164575 7.41237 -0.0412056 13.5498 3.53469 17.2626L3.53511 17.263L14.4949 28.6286L14.495 28.6288C15.5963 29.7702 17.3989 29.7702 18.5001 28.6288L18.5003 28.6286L29.4599 17.2633C33.0422 13.5504 32.8364 7.41245 28.836 3.98333Z" fill="white" stroke="white" stroke-width="2"/>
<path d="M18.3354 6.21107L18.3358 6.2106C20.862 3.59273 24.8799 3.23027 27.5346 5.50201C30.6479 8.17098 30.8158 12.9775 28.0206 15.8746L28.0204 15.8748L17.0608 27.2402C17.0608 27.2402 17.0607 27.2403 17.0606 27.2404C16.7459 27.5663 16.2493 27.5663 15.9345 27.2404C15.9345 27.2403 15.9344 27.2402 15.9344 27.2402L4.97521 15.8752C2.18489 12.9781 2.35285 8.17106 5.46625 5.50201C8.12128 3.22993 12.1444 3.59331 14.6643 6.20988L14.6655 6.21107L15.7813 7.36583L16.5004 8.11007L17.2196 7.36583L18.3354 6.21107Z" fill="#D99B93" stroke="#D99B93" stroke-width="2"/>

</svg>
