<svg width="15" height="16" viewBox="0 0 15 16" fill="none" xmlns="http://www.w3.org/2000/svg">
<path d="M8.3973 1.48828C8.25928 1.16602 7.96762 0.960938 7.6473 0.960938C7.32699 0.960938 7.03793 1.16602 6.8973 1.48828L5.22282 5.36426L1.48324 5.98535C1.17074 6.03809 0.910324 6.28418 0.81397 6.62109C0.717616 6.95801 0.795741 7.33008 1.0197 7.5791L3.73324 10.5996L3.09262 14.8682C3.04053 15.2197 3.17074 15.5771 3.42855 15.7852C3.68637 15.9932 4.02751 16.0195 4.30876 15.8525L7.64991 13.8457L10.9911 15.8525C11.2723 16.0195 11.6134 15.9961 11.8713 15.7852C12.1291 15.5742 12.2593 15.2197 12.2072 14.8682L11.564 10.5996L14.2775 7.5791C14.5015 7.33008 14.5822 6.95801 14.4832 6.62109C14.3843 6.28418 14.1265 6.03809 13.814 5.98535L10.0718 5.36426L8.3973 1.48828Z" fill="#EAC645"/>
</svg>
