<svg width="26" height="26" viewBox="0 0 26 26" fill="none" xmlns="http://www.w3.org/2000/svg">
<path d="M23.1741 12.6628L10.2561 16.7304C9.66657 16.9172 9.34635 17.519 9.54284 18.0793C9.69568 18.529 10.1396 18.8126 10.6127 18.8126C10.7291 18.8126 10.8528 18.7918 10.9693 18.7573L23.9528 14.6689C23.9528 14.6689 24.0183 14.6482 24.0547 14.6344C25.794 13.9011 26.2307 11.8535 25.8959 10.2624C25.532 8.49151 24.3167 7.32243 22.8175 7.28093L5.83847 6.81745H5.80936C5.6347 6.81745 5.46731 6.85895 5.32175 6.92813C4.63765 3.13728 3.64787 0.944392 2.30149 0.245713C1.63921 -0.100168 0.998773 -0.030992 0.620331 0.148866C0.0672219 0.411735 -0.158388 1.05507 0.118166 1.58081C0.343776 2.00279 0.81683 2.22415 1.28988 2.16189C1.57372 2.39017 2.77454 3.71836 3.53143 10.1725L4.70315 17.9756C4.7177 18.0862 4.76137 18.19 4.81231 18.2869C3.12387 18.7849 1.88666 20.286 1.88666 22.057C1.88666 24.2291 3.74976 26 6.03497 26C7.93446 26 9.54285 24.7825 10.0305 23.1223H16.1583C16.6532 24.7825 18.2543 26 20.1538 26C22.439 26 24.3021 24.2291 24.3021 22.057C24.3021 19.8848 22.439 18.1139 20.1538 18.1139C19.5352 18.1139 19.033 18.5912 19.033 19.1792C19.033 19.7672 19.5352 20.2445 20.1538 20.2445C21.2018 20.2445 22.0533 21.0539 22.0533 22.05C22.0533 23.0462 21.2018 23.8555 20.1538 23.8555C19.1058 23.8555 18.2543 23.0462 18.2543 22.05C18.2543 21.462 17.7521 20.9847 17.1335 20.9847H9.06251C8.44391 20.9847 7.94174 21.462 7.94174 22.05C7.94174 23.0462 7.09025 23.8555 6.04225 23.8555C4.99426 23.8555 4.14276 23.0462 4.14276 22.05C4.14276 21.0539 4.99426 20.2445 6.04225 20.2445C6.66086 20.2445 7.16302 19.7672 7.16302 19.1792C7.16302 18.8541 6.96652 17.9271 6.93014 17.6712L5.7657 9.90271C5.72931 9.57066 5.68564 9.24553 5.64197 8.93424C5.69292 8.94116 5.73659 8.94808 5.78753 8.95499L22.7665 9.41847C23.2323 9.43231 23.5816 10.0756 23.7053 10.6775C23.8873 11.556 23.6544 12.4346 23.1886 12.6698L23.1741 12.6628Z" fill="#A88686"/>
<path d="M23.1741 12.6628L10.2561 16.7304C9.66657 16.9172 9.34635 17.519 9.54284 18.0793C9.69568 18.529 10.1396 18.8126 10.6127 18.8126C10.7291 18.8126 10.8528 18.7918 10.9693 18.7573L23.9528 14.6689C23.9528 14.6689 24.0183 14.6482 24.0547 14.6344C25.794 13.9011 26.2307 11.8535 25.8959 10.2624C25.532 8.49151 24.3167 7.32243 22.8175 7.28093L5.83847 6.81745H5.80936C5.6347 6.81745 5.46731 6.85895 5.32175 6.92813C4.63765 3.13728 3.64787 0.944392 2.30149 0.245713C1.63921 -0.100168 0.998773 -0.030992 0.620331 0.148866C0.0672219 0.411735 -0.158388 1.05507 0.118166 1.58081C0.343776 2.00279 0.81683 2.22415 1.28988 2.16189C1.57372 2.39017 2.77454 3.71836 3.53143 10.1725L4.70315 17.9756C4.7177 18.0862 4.76137 18.19 4.81231 18.2869C3.12387 18.7849 1.88666 20.286 1.88666 22.057C1.88666 24.2291 3.74976 26 6.03497 26C7.93446 26 9.54285 24.7825 10.0305 23.1223H16.1583C16.6532 24.7825 18.2543 26 20.1538 26C22.439 26 24.3021 24.2291 24.3021 22.057C24.3021 19.8848 22.439 18.1139 20.1538 18.1139C19.5352 18.1139 19.033 18.5912 19.033 19.1792C19.033 19.7672 19.5352 20.2445 20.1538 20.2445C21.2018 20.2445 22.0533 21.0539 22.0533 22.05C22.0533 23.0462 21.2018 23.8555 20.1538 23.8555C19.1058 23.8555 18.2543 23.0462 18.2543 22.05C18.2543 21.462 17.7521 20.9847 17.1335 20.9847H9.06251C8.44391 20.9847 7.94174 21.462 7.94174 22.05C7.94174 23.0462 7.09025 23.8555 6.04225 23.8555C4.99426 23.8555 4.14276 23.0462 4.14276 22.05C4.14276 21.0539 4.99426 20.2445 6.04225 20.2445C6.66086 20.2445 7.16302 19.7672 7.16302 19.1792C7.16302 18.8541 6.96652 17.9271 6.93014 17.6712L5.7657 9.90271C5.72931 9.57066 5.68564 9.24553 5.64197 8.93424C5.69292 8.94116 5.73659 8.94808 5.78753 8.95499L22.7665 9.41847C23.2323 9.43231 23.5816 10.0756 23.7053 10.6775C23.8873 11.556 23.6544 12.4346 23.1886 12.6698L23.1741 12.6628Z" fill="black" fill-opacity="0.2"/>
</svg>
