<?xml version="1.0" encoding="utf-8"?>
<!-- Generator: Adobe Illustrator 27.0.0, SVG Export Plug-In . SVG Version: 6.00 Build 0)  -->
<svg version="1.1" id="Capa_1" xmlns="http://www.w3.org/2000/svg" xmlns:xlink="http://www.w3.org/1999/xlink" x="0px" y="0px"
	 viewBox="0 0 100 100" style="enable-background:new 0 0 100 100;" xml:space="preserve">
<style type="text/css">
	.st0{fill:#FFFFFF;}
</style>
<g>
	<path class="st0" d="M208.4-575.5c-2.2-47.2-16.6-84.5-42.9-110.8c-26.3-26.3-63.6-40.7-110.8-42.9c-27.5-1.2-36.6-1.5-105.8-1.5
		s-78.2,0.2-105.7,1.5c-47.2,2.2-84.5,16.6-110.8,42.9c-26.3,26.3-40.7,63.6-42.9,110.8c-1.2,27.5-1.5,36.6-1.5,105.8
		c0,69.1,0.3,78.3,1.5,105.8c2.2,47.2,16.6,84.5,42.9,110.8s63.6,40.7,110.8,42.9c27.5,1.2,36.6,1.5,105.8,1.5s78.3-0.3,105.8-1.5
		c47.2-2.2,84.5-16.6,110.8-42.9c26.3-26.3,40.7-63.6,42.9-110.8c1.2-27.5,1.5-36.6,1.5-105.8S209.7-548,208.4-575.5z M-51-264.9
		c-68.4,0-76.4-0.3-103.2-1.5c-32.8-1.5-57.6-10.4-73.7-26.5c-16.3-16.3-25-40.4-26.5-73.7c-1.2-26.8-1.5-34.8-1.5-103.2
		s0.3-76.4,1.5-103.2c1.5-32.8,10.4-57.6,26.5-73.7c16.5-16.5,39.9-25,73.7-26.5c26.8-1.2,34.8-1.5,103.2-1.5s76.4,0.3,103.2,1.5
		c33.3,1.5,57.4,10.2,73.7,26.5c16.5,16.5,25,40,26.5,73.7c1.2,26.8,1.5,34.8,1.5,103.2s-0.3,76.4-1.5,103.2
		c-1.5,33.2-10.2,57.3-26.5,73.7c-16.5,16.5-40,25-73.7,26.5C25.4-265.1,17.4-264.9-51-264.9z"/>
	<path class="st0" d="M-51-611.2c-37.8,0-73.3,14.7-100,41.4c-26.7,26.7-41.4,62.2-41.4,100s14.7,73.3,41.4,100
		c26.7,26.7,62.2,41.4,100,41.4s73.3-14.7,100-41.4c26.7-26.7,41.4-62.2,41.4-100s-14.7-73.3-41.4-100
		C22.3-596.5-13.2-611.2-51-611.2z M-51-384.4c-11.8,0-23-2.4-33.2-6.7c-5.1-2.2-10-4.8-14.5-7.9c4.5,3.1,9.4,5.7,14.5,7.9
		C-74-386.8-62.8-384.4-51-384.4s23-2.4,33.2-6.7c5.1-2.2,10-4.8,14.5-7.9c-4.5,3.1-9.4,5.7-14.5,7.9C-28-386.8-39.2-384.4-51-384.4
		z M34.3-469.8c0,8.8-1.3,17.4-3.8,25.4C33-452.4,34.3-460.9,34.3-469.8L34.3-469.8z M-126.3-469.8c0-41.5,33.8-75.3,75.3-75.3
		s75.3,33.8,75.3,75.3S-9.5-394.5-51-394.5S-126.3-428.2-126.3-469.8z M-102.1-401.4c-3.3-2.5-6.4-5.1-9.3-8s-5.6-6-8-9.3
		c2.5,3.3,5.1,6.4,8,9.3C-108.5-406.5-105.4-403.8-102.1-401.4z M-106.7-534.4c1.5-1.3,3.1-2.6,4.7-3.8
		C-103.7-536.9-105.2-535.7-106.7-534.4z M24-429.1c-1.3,2.4-2.7,4.8-4.3,7C21.3-424.3,22.7-426.7,24-429.1z M-98.7-540.5
		c2.3-1.5,4.6-3,7-4.3C-94.1-543.5-96.5-542-98.7-540.5z M-119.4-520.8c2.5-3.3,5.1-6.4,8-9.3C-114.2-527.2-116.9-524.1-119.4-520.8
		z M-129.6-503c-4.3,10.2-6.7,21.4-6.7,33.2s2.4,23,6.7,33.2c2.2,5.1,4.8,10,7.9,14.5c-3.1-4.5-5.7-9.4-7.9-14.5
		c-4.3-10.2-6.7-21.4-6.7-33.2C-136.3-481.5-134-492.8-129.6-503c2.2-5.1,4.8-10,7.9-14.5C-124.8-512.9-127.5-508.1-129.6-503z
		 M9.3-409.4c-2.9,2.9-6,5.6-9.3,8C3.3-403.8,6.4-406.5,9.3-409.4z M17.4-418.7c-1.6,2.2-3.4,4.3-5.2,6.3
		C14-414.4,15.7-416.5,17.4-418.7z M-182.3-476.5c0.2-3.4,0.5-6.7,0.9-10c0.3-2.2,0.6-4.4,1-6.5c1-5.4,2.3-10.7,3.9-15.8
		c1-3.1,2-6.1,3.2-9.1c0.8-2,1.6-4,2.5-5.9c-0.9,1.9-1.7,3.9-2.5,5.9c-1.2,3-2.2,6-3.2,9.1c-1.6,5.1-2.9,10.4-3.9,15.8
		c-0.4,2.2-0.7,4.3-1,6.5C-181.8-483.2-182.1-479.9-182.3-476.5c-0.1,2.2-0.2,4.5-0.2,6.8l0,0C-182.5-472-182.4-474.3-182.3-476.5z
		 M72.8-513.9c-0.2-0.6-0.5-1.3-0.7-1.9C72.4-515.1,72.6-514.5,72.8-513.9z"/>
	<path class="st0" d="M112.7-621.1c-1.9-3.5-4.4-6.6-7.5-9.1c-1.1-0.9-2.3-1.8-3.6-2.6c-1.7-1-3.5-1.9-5.4-2.6
		c-3.3-1.2-6.9-1.9-10.6-1.9c-3.2,0-6.2,0.5-9.1,1.4c-1,0.3-1.9,0.6-2.8,1c-1.4,0.6-2.7,1.3-4,2c-1.7,1-3.3,2.2-4.7,3.5
		c-0.4,0.3-0.7,0.7-1.1,1c-0.7,0.7-1.4,1.4-2,2.2c-0.3,0.4-0.6,0.8-0.9,1.2c-0.6,0.8-1.1,1.6-1.7,2.5c-0.3,0.4-0.5,0.9-0.7,1.3
		c-0.5,0.9-0.9,1.8-1.3,2.7c-1.6,3.7-2.4,7.7-2.4,12c0,3.7,0.7,7.3,1.9,10.6c0.3,0.7,0.5,1.4,0.8,2c0.2,0.5,0.4,0.9,0.7,1.4
		c0.3,0.7,0.7,1.3,1.1,2c0.5,0.8,1.1,1.7,1.7,2.5c0.3,0.4,0.6,0.8,0.9,1.2c0.3,0.4,0.7,0.8,1,1.2c1.4,1.5,3,2.9,4.7,4.2
		c0.4,0.3,0.9,0.6,1.3,0.9c0.7,0.4,1.3,0.8,2,1.2c0.4,0.2,0.9,0.5,1.3,0.7c4,1.9,8.5,3,13.3,3c17,0,30.7-13.8,30.7-30.7
		c0-4.8-1.1-9.3-3-13.3C113.1-620.2,112.9-620.6,112.7-621.1z"/>
</g>
<g>
	<path d="M-1061.6,50.8c0-3.3,0-6.8,0-10.2c0-3.4-1.7-5.5-4.8-5.7c-1.8-0.1-3,0.6-3.7,1.1c-1.1,1-1.7,2.4-1.8,4.3c0,0.5,0,1.1,0,1.6
		v8.9c0,6.3,0,12.5,0,18.8c0,7.8-3.9,11.6-11.7,11.6c-33,0-66.1,0-99.1,0c2.3-4.9,2.6-9.8,2.6-14c0-33.7-0.1-72.8,0-111.1
		c0-5.1-0.4-10.5-3.3-15.3h21.9c25.9,0,51.8,0,77.7,0c7.6,0,11.7,4.1,11.7,11.8c0,7.9,0,15.7,0,23.6c0,3.4,1.9,5.6,4.9,5.7
		c1.9,0,3-0.7,3.7-1.3c1-1,1.5-2.5,1.5-4.4c0-2.5,0-5,0.1-7.5c0-2.1,0.1-4.3,0.1-6.4c0-1.7,0-3.5-0.1-5.1c0-1.5-0.1-3.1-0.1-4.6
		c0-12.7-9.2-21.9-21.8-21.9c-32.2,0-64.4,0-96.7,0h-20.4c-1.2,0-2.4,0.1-3.5,0.2c-9.7,1.3-18.2,10.7-18.1,20.2
		c0,5.2,3.8,5.6,4.9,5.6c6.9,0.1,14.9,0.2,22.8-0.1c1.6-0.1,3.4-1.6,4.3-3.2c0,24.1,0,48.1,0,72.2v42.2c-0.7-1.3-2.3-2.5-5.3-2.5
		h-0.1c-4.1,0-8.3,0-12.4,0c-2.7,0-5.5,0-8.2,0c-1.4,0-3.2,0.2-4.4,1.4c-1.3,1.3-1.4,3.1-1.4,4.5c0.1,11.2,9.9,20.3,22,20.3
		c18.9,0,38.2,0,58.1,0c19,0,38.7,0,59.2,0c11.8,0,21.4-9.6,21.5-21.5c0-3.8,0-7.6,0-11.4v-3.3
		C-1061.6,53.8-1061.6,52.3-1061.6,50.8z M-1194.9-53.3c-1.3,0-2.6,0-3.8,0c-0.7,0-1.4,0-2.2,0c-0.8,0-1.5,0-2.3,0h-7.6
		c0.9-2.1,2.5-3.4,3.8-4.2c3.1-1.7,7-1.9,10.4-0.5c3,1.2,4.8,3.2,5.6,6.3C-1191.9-52.7-1193.3-53.3-1194.9-53.3z M-1191.1,74.1
		c0-0.1,0.1-0.1,0.1-0.2c-0.9,3.6-3.1,6.1-6.4,6.9c-4.9,1.3-10.4-0.3-12.8-3.7c-0.3-0.4-0.5-0.9-0.8-1.4h2.5c4.4,0,8.4,0,12.5,0
		C-1193.7,75.7-1192.2,75.2-1191.1,74.1z"/>
	<path d="M-1039.4-30.4c-2-1.3-5.1,0.4-6.1,1.1c-1.3,1-2.6,2.1-3.8,3.2c-1.6,1.5-3.2,2.8-4.9,3.9c-9.7,6.2-20.8,8.5-30.3,9.9
		c-2.9,0.4-6.6,1-8.8,4.4h-0.2c-0.5,0.1-1,0.2-1.6,0.2c-1.4,0.2-2.9,0.4-4.3,1.2c-4.8,2.7-8.7,5-12.4,7.9
		c-14.9,11.6-21.5,25.4-20.3,42c0,0.4-0.6,1.4-0.9,1.9l-0.2,0.3c-1.8,3-3.6,5.9-5.5,8.8c-2,3.2-4,6.4-6,9.6
		c-0.9,1.5-1.2,3.1-0.8,4.5c0.3,0.9,1,2.2,2.8,3.1c0.7,0.3,1.5,0.6,2.3,0.6c1.5,0,3.2-0.8,4.7-3.4c1.7-3,3.6-5.9,5.3-8.8
		c1.5-2.4,3.1-5,4.6-7.5c0.5-0.9,0.9-1.2,2.6-0.9c7.3,1.1,15.9,2,24.2-0.4c3.6-1,7.3-3,10.6-5.6c1.2-0.9,1.8-1.3,2.8-1.5
		c2.9-0.5,5.6-1.1,7.8-2.8c2.7-2.1,5.2-4.5,7.5-6.9c0.8-0.8,1.5-1.5,2.3-2.3l0.2-0.1c1.6-1.6,3.9-3.8,3.4-6.7c1.3-0.4,2.7-0.9,3.6-2
		l0.8-0.9c5.1-6.1,10.4-12.5,10.8-21.5l0.1-0.1c0.1-0.1,0.1-0.2,0.2-0.3c5.1-6.5,8.8-14.4,11.6-25.1
		C-1036.4-26.5-1037.8-29.3-1039.4-30.4z M-1063.8,3.9c0.7,1.4,2.7,2.2,4.7,3.7c-1.8,2.6-3.9,6-6.3,9.2c-0.5,0.7-1.9,0.9-3,1
		c-3.7,0.5-7.4,0.6-11.1,1.3c-1.1,0.2-2.7,1.5-2.9,2.5c-0.2,1,0.9,2.7,1.9,3.4c1.6,1.2,3.6,1.8,6,2.9c-3,2.7-5.5,5.6-8.6,7.5
		c-1.6,1-4.4,0.9-6.5,0.5c-3.5-0.7-6.9-2.3-10.4-3.2c-1.3-0.3-3.4-0.1-4,0.7c-0.7,0.8-0.6,3,0.1,4.1c1.2,2,3,3.5,5,5.6
		c-7.3,2.1-14.2,1.6-22.1,0.7c2.8-3,5.2-5.5,7.6-7.9c11.3-11.4,24.4-20.6,38.3-28.6c2.7-1.6,3.5-3.3,2.3-5.1
		c-1.5-2.3-3.4-1.5-5.4-0.4c-16.5,9.3-31.5,20.5-44.4,34.5c-0.2,0.2-0.5,0.3-0.7,0.5c-1.6-9.6,10.8-27.3,23.1-32.7
		c-0.2,1.3-0.7,2.6-0.5,3.8c0.3,1.3,1,3,2,3.3s3-0.4,3.7-1.3c2.7-3.6,5.1-7.4,7.7-11.1c0.7-1,1.9-2,3.1-2.3c6-1.5,12.1-2.4,18-4.3
		c5.8-1.8,11.4-4.5,17.2-6.9c-2.2,4.6-4,9.6-9.1,12.2c-1.1,0.6-2.1,1.5-3.1,2.2C-1062.9,0.6-1064.9,1.8-1063.8,3.9z"/>
	<g>
		<path d="M-1152.6-33.4h33.8c7.1,0,14.2,0,21.2,0l0,0c0.2,0,0.4,0,0.6,0c0.3,0,0.6,0,0.9,0c0.8,0,1.7-0.1,2.4-0.7
			c2-1.6,3-3.1,3-4.6c0.1-1.5-1-3-3.3-4.5c-1-0.7-2.2-0.6-3.1-0.5c-0.2,0-0.4,0-0.6,0l0,0c-14.1,0-28.3,0-42.4,0h-6.1
			c-2.2,0-4.4,0-6.6,0c-3.4,0-5.5,2-5.5,5C-1158.2-35.4-1156.1-33.4-1152.6-33.4z"/>
		<path d="M-1093.8-27c-1-0.9-2.2-0.8-3.1-0.8c-0.2,0-0.3,0-0.5,0l0,0h-19.1c-11.8,0-23.6,0-35.3,0l0,0c-5.2,0-6.3,2.8-6.3,5.1
			c0,1.5,0.4,2.8,1.3,3.7c1.4,1.4,3.4,1.6,5,1.6c6.7,0,13.3,0,20,0h7.4h24.4c0.4,0,0.9,0,1.3,0.1c0.5,0,1,0.1,1.5,0.1
			c0.8,0,1.7-0.1,2.5-0.4c1.5-0.5,4.3-2.4,4.2-4.6C-1090.7-24.3-1092.5-25.9-1093.8-27z"/>
		<path d="M-1112.1-11.7c-0.3,0-0.6,0-0.9,0h-11.3c-9.3,0-18.5,0-27.8,0l0,0c-1.4,0-3.5,0.2-4.9,1.6c-0.9,0.9-1.3,2.2-1.3,3.7
			c0.1,4.8,4.4,5,6.2,5c0.1,0,0.2,0,0.2,0c4.5,0,9.1,0,13.6,0h5.8h5.3c4.9,0,9.8,0,14.7,0c0,0,0,0,0.1,0c3.5,0,5.7-1.9,5.8-5
			C-1106.4-7.8-1106.9-11.3-1112.1-11.7z"/>
	</g>
</g>
<g>
	<path d="M-1615.1,25.8c0-6.9,0-13.8,0-20.7V4.9c0-0.7,0-1.5-0.1-2.3c-0.5-4.1-3-6.7-7.1-7.3c-0.3,0-0.5-0.1-0.8-0.1v-0.6
		c0-4.3,0-8.7,0-13c0-10.6,0-21.5,0.1-32.2c0-3.5-1.2-6.7-3.4-8.9c-2.2-2.2-5.4-3.4-8.9-3.4c-14.5,0.1-29.2,0.1-43.4,0.1
		c-5.6,0-11.1,0-16.7,0h-0.6v-1.3c0-2.5,0-5,0-7.4c0-2.1-0.3-5.1-3.7-6.7c-3.2-1.5-5.7,0.1-7.3,1.4l-1.2,1c-1.8,1.4-3.6,2.9-5.4,4.4
		c-2.4-2-4.9-4-7.3-5.8c-1.7-1.3-3.7-1.8-5.6-1.4c-1.7,0.4-3.2,1.5-4,3.2c-0.6,1.3-0.7,2.8-0.8,3.8c0,2.6,0,5.1,0,7.7v1.1
		c-0.9,0-1.7,0-2.5,0c-6.9,0.1-11.4,4.6-11.4,11.5c0,44.3,0,89.6,0,134.6c0,7,4.5,11.6,11.5,11.6c14.1,0,27.6,0,40.6,0
		c20.7,0,40,0,58.4,0c1.9,0,3.9-0.4,5.6-1.2c4-1.9,6.1-5.5,6-10.6c0-11.5,0-22.9,0-34.4v-13C-1617.3,34.8-1615.1,32-1615.1,25.8z
		 M-1638.4,35.5c1.9,0.1,3.7,0.1,5.7,0c0,8.1,0,16.2,0,24.2c0,7.9,0,15.9,0,23.8c0,1.1-0.2,1.4-1.5,1.6c-1.6,0.2-3.3,0.3-3.9,0.3
		c-0.2-0.6-0.2-2.2-0.2-3.8V53.9C-1638.3,47.9-1638.3,41.7-1638.4,35.5z M-1625.2,25.5c-3,0-5.9,0-8.9,0c-4.9,0-10,0-15-0.1
		c-4-0.1-7.4-2.1-9.2-5.3c-1.8-3.2-1.6-6.9,0.3-10.2c1.7-2.8,4.2-4.4,7.3-4.6c1.7-0.1,3.3-0.1,5-0.1c1.3,0,2.6,0,3.9,0s2.6,0,4,0h2
		V5.1h1.6c2.9,0,6,0,9,0C-1625.2,11.5-1625.2,18.1-1625.2,25.5z M-1648-16.2v11.4c-0.5,0-0.9,0-1.4,0c-7.6,0.2-14.3,4.1-17.8,10.6
		c-3.5,6.4-3.2,14,0.7,20.3c3.8,6.2,9.9,9.4,17.6,9.5c0.3,0,0.6,0,0.8,0c0,0.1,0,0.2,0,0.3V49c0,11.8,0,23.9,0,35.9
		c0,0.2,0,0.3,0,0.4c-0.1,0-0.2,0-0.4,0c-17.6,0-35.5,0-53,0c-4.4,0-8.8,0-13.1,0h-18.2c-2.9,0-2.9,0-2.9-3V-50.5
		c0-2.9,0-2.9,2.9-2.9h18.3c21.6,0,44,0,65.9,0c0.2,0,0.3,0,0.4,0c0,0.1,0,0.2,0,0.4C-1648-40.8-1648-28.3-1648-16.2z M-1632.7-4.9
		L-1632.7-4.9L-1632.7-4.9c-1,0-2,0-3.1,0c-0.7,0-1.5,0-2.2,0c-0.1,0-0.2,0-0.3,0v-48.4h0.1c1.5,0,3-0.1,4.3,0.1c0.5,0,1,0.1,1,1.6
		c0,3.4,0,6.8,0,10.2v12.1C-1632.7-21.3-1632.8-13.1-1632.7-4.9z M-1721.6-65.7c1.1,0.9,2.1,1.7,3.2,2.6l0.1,0.1c-1.1,0-2.2,0-3.3,0
		C-1721.6-63.9-1721.6-64.8-1721.6-65.7z M-1709-62.9C-1709-63-1708.9-63-1709-62.9l3.4-2.7c0,0.9,0,1.8,0,2.7
		C-1706.8-63-1707.9-63-1709-62.9z"/>
	<path d="M-1701.1-6.5c-0.2,0.1-0.3,0.2-1-0.1c-1.9-0.7-3.9-1.3-5.6-1.9c-0.6-0.2-1.2-0.4-1.7-0.5l-0.5-0.2l-0.5,0.1
		c-0.8,0.1-1.5,0.2-2.2,0.3c-1.4,0.2-2.6,0.4-3.8,0.7c-6,1.9-10.5,6.6-11.9,12.6c-1.5,6,0.3,12.2,4.7,16.7c4.3,4.4,8.7,8.7,13,13
		l2.9,2.9c1.8,1.8,3.7,2.6,5.7,2.6s4-0.9,5.8-2.7c5.8-5.7,11-10.9,16.3-16.3c5.9-6,6.4-16.1,1-22.9
		C-1684.5-9.1-1693.6-11-1701.1-6.5z M-1685.8,12.1c-0.4,0.7-0.8,1.5-1.3,2c-4.1,4.1-8.2,8.2-12.4,12.5l-2.6,2.6l-1.6-1.6
		c-2.2-2.2-4.3-4.4-6.4-6.5c-0.9-0.9-1.7-1.7-2.6-2.6c-1.3-1.2-2.5-2.5-3.8-3.8c-3.2-3.3-3.6-7.6-1-10.9c1.6-2,4.1-3.1,6.7-3.1
		c1.5,0,3,0.4,4.3,1.2c3.7,2.2,7,2.2,10.3-0.1c2.6-1.8,6.1-1.3,8.9,1.3C-1685,5.2-1684.3,9.2-1685.8,12.1z"/>
	<path d="M-1647.9,9.3c-1.7,0-3.4,0.7-4.7,1.9c-1.3,1.3-2,3-2,4.7c0,3.6,3,6.5,6.6,6.5l0,0c1.8,0,3.4-0.7,4.7-1.9
		c1.2-1.2,1.9-2.9,1.9-4.7C-1641.4,12.2-1644.2,9.4-1647.9,9.3z"/>
</g>
<g>
	<path d="M-1009.3-25.5c1-3.3,2.5-6.3,5.9-7.8c1.7-0.7,3.5-1.2,5.3-1.3c8.7-0.1,17.4,0,26.1-0.1c1.8,0,3.3,0.6,4.5,1.9
		c2.2,2.2,4.3,4.4,6.7,6.8c2.1-2.1,4.2-4.1,6.1-6.2c1.6-1.8,3.5-2.5,6-2.5c33.3,0,66.7,0,100,0c7.7,0,12.1,4.4,12.1,12.1
		c0,31.5,0,63,0,94.4c0,7.8-4.4,12.1-12.1,12.1c-33.3,0-66.7,0-100,0c-2.4,0-4.3-0.7-6-2.5c-1.9-2.1-3.9-4-6.1-6.2
		c-2.2,2.2-4.2,4.3-6.2,6.4c-1.6,1.7-3.4,2.4-5.7,2.3c-7.8-0.1-15.5,0-23.3,0c-8,0-10.6-1.8-13.4-9.1
		C-1009.3,41.5-1009.3,8-1009.3-25.5z M-847.5,73.3c0-32.5,0-64.8,0-97.1c-0.8,0-1.5,0-2.1,0c-29.6,0-59.2,0-88.9,0
		c-3,0-6.4-0.8-9,0.3s-4.5,4.1-6.7,6.2c-0.8,0.7-1.1,1.5-1.1,2.6c0.1,3.7,0,7.3,0,11c0,0.5-0.1,1-0.1,1.4c-3.6,0-7.1,0-10.7,0
		c0-4.2,0-8.3,0-12.4c0-1.1-0.3-1.9-1.1-2.6c-1.9-1.8-3.6-3.7-5.5-5.4c-0.6-0.6-1.6-1-2.4-1c-7.2-0.1-14.5,0-21.7,0
		c-0.5,0-1,0.1-1.4,0.1c0,32.4,0,64.7,0,96.9c0.2,0.1,0.3,0.1,0.4,0.1c4.9,0,9.9,0,14.8,0c3.1,0,6.5,0.8,9.2-0.3s4.6-4.1,6.8-6.4
		c0.5-0.6,0.9-1.5,1-2.3c0.1-3.7,0-7.3,0-11c0-0.5,0-1.1,0-1.7c2,0,3.8,0,5.5,0s3.4,0,5.3,0c0,2.3,0,4.3,0,6.4
		c0,2.5-0.6,5.3,0.3,7.5c0.9,2.1,3.3,3.6,5,5.4c0.4,0.4,0.8,0.7,1.1,1.1c0.8,1,1.8,1.3,3.1,1.3c32.1,0,64.3,0,96.4,0
		C-848.9,73.3-848.3,73.3-847.5,73.3z"/>
	<path d="M-928.3,62.5c-2.2-0.1-3.9-1-4.9-3c-1-2.1-0.7-4.2,0.8-6c4.2-5.1,8.5-10.2,12.7-15.3c13.5-16.2,27-32.4,40.4-48.6
		c1.5-1.9,3.3-3.1,5.8-2.6c4.1,0.8,5.8,5.4,3.1,8.8c-3.1,3.9-6.3,7.6-9.5,11.4c-14.6,17.5-29.1,35-43.7,52.4
		C-924.8,61.3-926.2,62.4-928.3,62.5z"/>
	<path d="M-901.4,3.2c0,8.8-7.5,16.2-16.2,16.2c-8.9-0.1-16.2-7.5-16.1-16.3c0.1-8.8,7.4-16.1,16.2-16.1
		C-908.8-13.1-901.4-5.7-901.4,3.2z M-912.2,3.2c0-2.9-2.3-5.4-5.3-5.5c-2.9-0.1-5.4,2.3-5.5,5.2c-0.1,3,2.4,5.5,5.4,5.5
		C-914.7,8.5-912.2,6.1-912.2,3.2z"/>
	<path d="M-869,46.3c0,8.8-7.5,16.2-16.2,16.1c-8.9-0.1-16.2-7.5-16.1-16.3c0.1-8.8,7.4-16.1,16.2-16.1
		C-876.4,30.1-869,37.5-869,46.3z M-885.1,51.7c2.9,0,5.3-2.5,5.3-5.4s-2.4-5.4-5.4-5.4s-5.5,2.5-5.4,5.5
		C-890.5,49.3-888.1,51.7-885.1,51.7z"/>
	<path d="M-966.1,19.2c0-3.5,0-7,0-10.6c3.5,0,7,0,10.6,0c0,3.5,0,7,0,10.6C-958.9,19.2-962.4,19.2-966.1,19.2z"/>
	<path d="M-966.1,40.8c0-3.6,0-7,0-10.6c3.5,0,7,0,10.6,0c0,3.5,0,7,0,10.6C-958.9,40.8-962.4,40.8-966.1,40.8z"/>
</g>
<path d="M-1350.7-19.8c-1.3-2.9-3.5-5.3-3.2-7.3c0.7-5.4,5.9-3.7,9.9-4.6c-2.7-7.1-5.3-13.9-7.9-20.7c-1.1-2.9-2.3-5.7-3.3-8.6
	c-1.1-3.2,0.1-5.7,3.3-6.6c11.4-3.1,22.9-4.6,34.3,0.4c7,3.1,14.2,2.1,21.4,0.8c1.4-0.3,2.9-1,4.3-1c2,0.1,4.8,0,5.8,1.2
	c1.1,1.4,1.3,4.4,0.7,6.2c-2.7,7.9-5.8,15.6-8.8,23.3c-0.6,1.5-1.1,3-1.7,4.9c3.9,1,9.5-0.8,10,5.1c0.2,2-2.2,4.3-4,7.4
	c7,6.8,15.1,14.1,22.6,22c8.3,8.8,14.5,19,16.5,31.2c4.1,24-5.8,43.5-28.4,52.6c-26.7,10.7-54.1,10.9-80.8,0.2
	c-27.7-11.1-38.1-40.1-24.1-66.5c4.6-8.7,11.5-16.4,17.9-24.1C-1361.3-9.8-1355.4-15-1350.7-19.8z M-1319.8,84.3
	c14.5-0.4,28.6-1.9,41.6-9.2c13.5-7.6,19.9-20.7,18.1-36.1c-1.2-10.9-5.9-20.1-13.2-27.9c-9.9-10.6-20.3-20.6-30.7-30.8
	c-1-1-2.8-1.5-4.3-1.5c-7.8-0.1-15.6-0.2-23.3,0c-1.8,0.1-3.9,0.9-5.2,2.1c-6.6,6.1-13.3,12.1-19.3,18.8
	c-6.6,7.3-13.5,14.8-18.4,23.2c-10.1,17.3-9.2,44.9,20.8,55.8C-1342.8,82.8-1331.3,84-1319.8,84.3z M-1297.4-55.7
	c-1.4-0.1-1.9-0.2-2.5-0.1c-8.4,1-16.4,0-24.4-3.4c-6.1-2.6-12.7-1.8-19.5,0c3.4,9.1,6.7,17.7,10.1,26.3c0.3,0.7,1.6,1.6,2.4,1.6
	c7.6,0.1,15.3,0.1,22.9,0c0.7,0,1.8-0.7,2.1-1.4C-1303.3-40.2-1300.5-47.7-1297.4-55.7z"/>
<path class="st0" d="M-1302.3,18.8c-0.4-6.3-3.2-11.4-8.7-14.5c-2.5-1.4-4.1-2.7-4.4-5.9c-0.1-1.5-2.7-3.6-4.5-4
	c-2.7-0.6-4.8,1.4-4.8,4.2c0.1,3.2-1.6,4.3-4,5.6c-11.4,6.4-12.1,21.1-1.2,28.5c2.3,1.6,5,2.6,7.5,3.8c2.4,1.2,5,2,7.2,3.4
	c2.9,1.8,3.7,4.5,2.4,7.7c-1.5,3.5-4.3,5-8,4.7c-3.6-0.3-6.1-2.7-6.8-6.8c-0.8-4.2-2.7-6.1-5.9-5.6c-3.2,0.5-4.8,3.4-3.9,7.6
	c1.2,5.7,4.1,10.2,9.4,12.8c2,0.9,3.3,1.8,3.2,4.4c-0.2,3.2,1.7,5.1,4.9,5.1c3.1,0,4.8-2,4.7-4.9c-0.1-2.7,1.4-3.6,3.4-4.7
	c6.2-3.3,9.5-8.6,9.4-15.7c-0.1-8.9-6.2-13.1-13.4-16.3c-2.8-1.2-5.8-2.2-8.5-3.7s-4-4-3.1-7.1c0.9-3.3,3.1-5.3,6.5-5.7
	c4.8-0.5,7.7,2,8.8,7.8c0.6,3.2,2.3,4.9,5.5,4.6C-1303.7,23.9-1302.2,21.9-1302.3,18.8z"/>
<path d="M-1302.3,18.8c0.1,3-1.3,5.1-4.3,5.4c-3.1,0.3-4.9-1.4-5.5-4.6c-1.1-5.8-4-8.3-8.8-7.8c-3.5,0.4-5.6,2.4-6.5,5.7
	c-0.9,3.2,0.4,5.7,3.1,7.1c2.7,1.5,5.6,2.4,8.5,3.7c7.2,3.2,13.3,7.3,13.4,16.3c0.1,7.1-3.2,12.4-9.4,15.7c-2,1.1-3.5,2-3.4,4.7
	c0.1,2.9-1.6,4.9-4.7,4.9c-3.2,0-5.1-1.9-4.9-5.1c0.1-2.6-1.3-3.4-3.2-4.4c-5.3-2.6-8.2-7.1-9.4-12.8c-0.9-4.2,0.7-7,3.9-7.6
	c3.1-0.5,5.1,1.3,5.9,5.6c0.8,4,3.2,6.5,6.8,6.8c3.8,0.3,6.5-1.3,8-4.7c1.4-3.2,0.5-5.9-2.4-7.7c-2.3-1.4-4.8-2.3-7.2-3.4
	c-2.5-1.2-5.2-2.2-7.5-3.8c-10.8-7.4-10.2-22,1.2-28.5c2.4-1.4,4-2.5,4-5.6c0-2.7,2.1-4.8,4.8-4.2c1.8,0.4,4.4,2.5,4.5,4
	c0.3,3.2,1.9,4.5,4.4,5.9C-1305.5,7.4-1302.8,12.5-1302.3,18.8z"/>
<g>
	<path d="M-1443.5,55c-0.3-1.4-0.2-2.6,0.7-3.8c10-15.1,13.8-31.7,11.5-49.6c-4.7-35.9-35.7-63-72-63.3c-4.2,0.5-8.4,0.7-12.6,1.4
		c-42.5,7.2-69.5,50.6-57.3,91.9c12.6,42.5,59.3,63.9,99.8,45.8c1.1-0.5,2.5-0.6,3.6-0.3c8.1,2.2,16.2,4.5,24.3,6.7
		c5.1,1.4,7.9-1.2,6.8-6.3C-1440.2,69.9-1441.8,62.4-1443.5,55z M-1453.3,53.6c1.4,5.9,2.5,11.8,3.8,17.7c0.1,0.5,0.1,0.9,0.2,1.7
		c-1.1-0.3-2-0.4-2.9-0.7c-5.7-1.6-11.5-3.1-17.2-4.8c-2.3-0.7-4.3-0.4-6.4,0.6c-38.1,18.7-83.8-5.1-90.3-47.1
		c-5.5-35,18.7-67.5,54-72.6c34.3-5,67.2,19.9,71.5,54.2c2.1,16.8-1.7,32-11.6,45.8C-1453.3,50-1453.8,51.6-1453.3,53.6z"/>
	<circle cx="-1539" cy="11.2" r="9.8"/>
	<path d="M-1503.4,1.4c-5.4,0-9.8,4.4-9.8,9.8s4.4,9.8,9.8,9.8s9.8-4.4,9.8-9.8S-1498,1.4-1503.4,1.4z"/>
	<path d="M-1467.8,1.4c-5.4,0-9.8,4.4-9.8,9.8s4.4,9.8,9.8,9.8s9.8-4.4,9.8-9.8S-1462.4,1.4-1467.8,1.4z"/>
</g>
<path d="M0,100h100V0H0l0.4,0c0,5,3,5,3,10s-3,5-3,10c0,5,3,5,3,10c0,5-3,5-3,10c0,5,3,5,3,10c0,5-3,5-3,10c0,5,3,5,3,10
	c0,5-3,5-3,10c0,5,3,5,3,10c0,5-3,5-3,10"/>
</svg>
