<?xml version="1.0" encoding="utf-8"?>
<!-- Generator: Adobe Illustrator 27.0.0, SVG Export Plug-In . SVG Version: 6.00 Build 0)  -->
<svg version="1.1" id="圖層_1" xmlns="http://www.w3.org/2000/svg" xmlns:xlink="http://www.w3.org/1999/xlink" x="0px" y="0px"
	 viewBox="0 0 81 3" style="enable-background:new 0 0 81 3;" xml:space="preserve">
<style type="text/css">
	.st0{fill:#A4A4A4;}
</style>
<path class="st0" d="M79.5,3h-6C72.7,3,72,2.3,72,1.5C72,0.7,72.7,0,73.5,0h6C80.3,0,81,0.7,81,1.5C81,2.3,80.3,3,79.5,3z M67.5,3
	h-6C60.7,3,60,2.3,60,1.5C60,0.7,60.7,0,61.5,0h6C68.3,0,69,0.7,69,1.5C69,2.3,68.3,3,67.5,3z M55.5,3h-6C48.7,3,48,2.3,48,1.5
	C48,0.7,48.7,0,49.5,0h6C56.3,0,57,0.7,57,1.5C57,2.3,56.3,3,55.5,3z M43.5,3h-6C36.7,3,36,2.3,36,1.5C36,0.7,36.7,0,37.5,0h6
	C44.3,0,45,0.7,45,1.5C45,2.3,44.3,3,43.5,3z M31.5,3h-6C24.7,3,24,2.3,24,1.5C24,0.7,24.7,0,25.5,0h6C32.3,0,33,0.7,33,1.5
	C33,2.3,32.3,3,31.5,3z M19.5,3h-6C12.7,3,12,2.3,12,1.5C12,0.7,12.7,0,13.5,0h6C20.3,0,21,0.7,21,1.5C21,2.3,20.3,3,19.5,3z M7.5,3
	h-6C0.7,3,0,2.3,0,1.5C0,0.7,0.7,0,1.5,0h6C8.3,0,9,0.7,9,1.5C9,2.3,8.3,3,7.5,3z"/>
</svg>
