<?xml version="1.0" encoding="utf-8"?>
<!-- Generator: Adobe Illustrator 27.0.0, SVG Export Plug-In . SVG Version: 6.00 Build 0)  -->
<svg version="1.1" id="圖層_1" xmlns="http://www.w3.org/2000/svg" xmlns:xlink="http://www.w3.org/1999/xlink" x="0px" y="0px"
	 viewBox="0 0 335 212" style="enable-background:new 0 0 335 212;" xml:space="preserve">
<style type="text/css">
	.st0{clip-path:url(#SVGID_00000078034205840830257640000010009413738971082935_);fill:#D9D9D9;}
	.st1{clip-path:url(#SVGID_00000078034205840830257640000010009413738971082935_);fill:#E3D3C8;}
	.st2{clip-path:url(#SVGID_00000176038322527980367230000013904422760281021881_);}
	.st3{fill:#FFFFFF;}
</style>
<g>
	<g>
		<defs>
			<path id="SVGID_1_" d="M20,0h295c11,0,20,9,20,20v172c0,11-9,20-20,20H20c-11,0-20-9-20-20V20C0,9,9,0,20,0z"/>
		</defs>
		<use xlink:href="#SVGID_1_"  style="overflow:visible;fill:#EAC645;"/>
		<clipPath id="SVGID_00000114056522948566413610000006996277523074671269_">
			<use xlink:href="#SVGID_1_"  style="overflow:visible;"/>
		</clipPath>
		<path style="clip-path:url(#SVGID_00000114056522948566413610000006996277523074671269_);fill:#D9D9D9;" d="M333,53.4
			c17.6-34.4,60-35.7,79-32l-17,219H202c-0.3-18,4.7-66.1,43-78C333,135,311,96.4,333,53.4z"/>
		
			<ellipse style="clip-path:url(#SVGID_00000114056522948566413610000006996277523074671269_);fill:#E3D3C8;" cx="159.5" cy="-7" rx="72.5" ry="66"/>
	</g>
	<g>
		<defs>
			<rect id="SVGID_00000000917593852218842930000005800974853409766278_" x="20" y="39" width="80" height="26"/>
		</defs>
		<clipPath id="SVGID_00000011740614702436757680000004554846779748180374_">
			<use xlink:href="#SVGID_00000000917593852218842930000005800974853409766278_"  style="overflow:visible;"/>
		</clipPath>
		<g style="clip-path:url(#SVGID_00000011740614702436757680000004554846779748180374_);">
			<path class="st3" d="M100,64.6h-5.9c-0.2-1-0.5-2-0.6-3c-0.1-0.6-0.4-0.8-1-0.8c-2.3,0-4.6,0-6.8,0c-0.3,0-0.6,0.4-1,0.7
				c0,0,0,0.1-0.1,0.2c-0.4,1-0.5,2.3-1.2,2.8c-0.7,0.5-1.9,0.2-2.9,0.2c-1.2,0-2.3,0-3.7,0c0.5-1.1,0.9-2.1,1.3-3.1
				c2.8-6.6,5.5-13.2,8.3-19.9c0.6-1.5,1.6-2.3,3.3-2.2c1.4,0.1,2.8,0,4.2,0c0.6,0,0.9,0.2,1,0.8C96.6,48.3,98.3,56.4,100,64.6
				L100,64.6z M90.3,46.6c-0.1,0-0.2,0-0.2,0c-1.1,3-2.1,6-3.3,9.1h5.4C91.6,52.6,91,49.6,90.3,46.6z"/>
			<path class="st3" d="M37,56.2c0.5-1.2,1-2.4,1.4-3.6c1.6-4.1,3.2-8.1,4.8-12.2c0.3-0.7,0.6-0.9,1.4-0.9c1.9,0,3.7,0,5.7,0
				c-0.1,0.4-0.2,0.7-0.4,1c-3.2,7.7-6.4,15.4-9.6,23.2c-0.3,0.8-0.7,1.1-1.6,1.1c-1.6-0.1-3.2-0.1-4.8,0c-0.7,0-1-0.2-1.2-0.9
				c-1.6-6.4-3.3-12.8-4.9-19.3c-0.3-1.2-1-2.1-2.1-2.5c-1.6-0.6-3.3-1.1-5-1.7c-0.3-0.1-0.5-0.3-0.8-0.5c0.3-0.1,0.5-0.4,0.8-0.4
				c3.4,0,6.9,0,10.3,0c1.7,0,2.6,1,3,2.9c0.8,4.2,1.5,8.3,2.3,12.5c0.1,0.4,0.2,0.9,0.3,1.3C36.8,56.2,36.9,56.2,37,56.2L37,56.2z"
				/>
			<path class="st3" d="M58.7,63.7c0.4-1.8,0.7-3.5,1.1-5.3c1.5,0.4,3,1,4.5,1.2c1.2,0.2,2.5,0,3.8-0.1c0.5,0,1-0.4,1.5-0.7
				c1-0.7,1.1-2,0.2-2.9c-0.6-0.6-1.4-1-2.2-1.5c-1.2-0.7-2.5-1.4-3.6-2.2c-3.3-2.6-3.5-6.8-0.7-9.9c1.7-1.9,4-2.9,6.5-3.2
				c2.6-0.3,5.2-0.2,7.8,0.6c0.6,0.2,0.8,0.4,0.7,1.1c-0.4,1.4-0.6,2.9-0.9,4.2c-1.7-0.3-3.3-0.7-4.9-0.9c-1-0.1-2.2,0.1-3.1,0.5
				c-1.5,0.7-1.6,2.1-0.3,3.1c0.8,0.6,1.7,1,2.6,1.5c0.8,0.5,1.7,1,2.5,1.5c4.6,2.9,3.4,8.7,0.7,11.2c-1.8,1.6-3.9,2.5-6.2,2.7
				c-3.1,0.3-6.1,0.2-9.1-0.8C59.2,63.9,59,63.8,58.7,63.7L58.7,63.7z"/>
			<path class="st3" d="M59.6,39.5C57.8,48,56,56.3,54.2,64.6h-6.4c0.1-0.6,0.2-1.2,0.3-1.7c1.6-7.5,3.2-15,4.8-22.5
				c0.1-0.7,0.4-1,1.1-1C55.8,39.5,57.6,39.5,59.6,39.5L59.6,39.5z"/>
		</g>
	</g>
</g>
</svg>
